<?xml version="1.0" encoding="UTF-8"?>
<!DOCTYPE svg PUBLIC "-//W3C//DTD SVG 1.1//EN" "http://www.w3.org/Graphics/SVG/1.1/DTD/svg11.dtd">
<!-- Creator: CorelDRAW X8 -->
<svg xmlns="http://www.w3.org/2000/svg" xml:space="preserve" width="2.14187in" height="0.420748in" version="1.1" style="shape-rendering:geometricPrecision; text-rendering:geometricPrecision; image-rendering:optimizeQuality; fill-rule:evenodd; clip-rule:evenodd"
viewBox="0 0 1929 379"
 xmlns:xlink="http://www.w3.org/1999/xlink">
 <defs>
  <style type="text/css">
   <![CDATA[
    .str0 {stroke:#373435;stroke-width:2.70198}
    .fil0 {fill:#D2AE6D}
    .fil1 {fill:#EE220C}
    .fil2 {fill:#373435;fill-rule:nonzero}
   ]]>
  </style>
 </defs>
 <g id="Layer_x0020_1">
  <metadata id="CorelCorpID_0Corel-Layer"/>
  <g id="_611869054080">
   <path class="fil0" d="M102 186c0,0 -2,-1 -2,-1 -1,1 -1,-3 -5,-4 1,1 1,4 -1,4 -5,1 0,-7 -16,-3 8,4 3,-1 7,4 -17,0 -36,4 -52,3 0,0 0,1 0,2 1,3 2,0 -3,4l-1 2c9,-3 10,2 14,-4 3,4 -3,5 -9,6 -7,0 -9,2 -14,-1 -3,4 -2,3 -3,8l-13 1c3,5 -1,1 3,4 2,1 7,1 7,1 3,0 3,-1 2,2l-7 3c0,0 -1,2 -1,2 6,0 14,-2 22,0 5,1 3,-2 5,2 -5,3 -6,0 -12,2 2,4 0,1 7,2 0,2 0,7 -7,2l2 6c0,0 0,0 0,0l-25 3c0,4 0,1 1,2 7,4 13,0 21,2l3 6c6,-1 57,4 66,4 73,9 280,8 366,4 37,-1 76,0 112,0 8,0 9,-1 16,-3 6,-1 13,0 19,-1l-9 -3c16,-1 42,-2 54,-11 -3,1 -6,1 -8,1l6 -4c0,-10 -4,-8 -5,-16 5,-3 4,-2 9,-3l-4 -3c-8,-7 -2,-4 -2,-7 -8,-1 -11,2 -17,2 -8,0 -15,0 -22,0 -13,1 -32,-2 -43,-3 -96,-12 -149,-14 -249,-19 0,1 1,0 1,1 0,0 1,0 1,0 7,3 23,3 30,4l28 1c0,3 0,5 0,7l1 4c0,0 0,0 0,1 4,-1 8,0 13,0 7,0 10,0 13,-1 14,10 22,5 40,6 6,1 8,4 7,7 -7,2 -5,-2 -10,-3l-15 -3c-2,0 -10,-1 -13,-1 -2,4 1,4 0,5 -4,-1 -8,-1 -12,-1l-29 1c-7,0 -10,2 -15,2 -10,0 -21,-2 -31,0 -22,3 -40,-4 -56,-2 -16,4 -33,0 -48,2 -12,0 -8,-2 -15,-3 -6,-1 -22,0 -30,3l-2 -3c-1,0 -1,0 -3,0l0 -4c-9,-3 -6,-5 -18,-4 -3,4 -1,-1 0,1 0,0 1,0 0,3 -3,0 -10,1 -13,1 -5,0 -5,-1 -8,-2l8 -2 -8 -3 64 -2c12,-1 14,-8 4,-6 1,0 5,0 5,0 1,0 1,0 3,0l4 -3c-12,-5 -4,-1 -20,-1 -4,-1 -18,-3 -19,-3 9,-6 66,-1 74,-2 -8,-6 -104,-4 -121,-3l-3 0c0,0 0,0 -1,0l4 4 -12 0c0,-3 1,-3 3,-4 -19,-3 -15,0 -13,5l0 0z"/>
   <path class="fil0" d="M125 109l8 3c6,-1 12,-4 19,-4 8,-1 25,-5 32,-3 -4,3 -15,3 -20,3 -19,1 -42,8 -60,13 3,5 4,3 -12,9 -5,2 -15,8 -18,12 4,0 25,-7 39,-7 13,0 26,-3 42,-2 -8,-5 -68,12 -76,15 7,0 11,-1 19,0 6,0 10,0 18,0 6,0 9,3 16,4 18,2 37,0 54,2 12,1 24,-2 37,0 52,1 103,0 153,-2l3 -4 1 4c9,0 18,0 28,-2 3,-2 7,1 14,0 4,0 1,1 5,-3 -1,0 -4,1 -6,0 5,-5 28,-2 36,-2 0,0 0,0 1,0 0,0 0,0 0,0 2,0 3,-2 3,-2 8,-1 13,2 20,-1l35 -3c4,0 4,0 7,-1 3,-1 3,-3 7,-3 4,0 10,2 14,0l3 -1c3,-1 3,1 8,-1 0,0 -2,-1 -2,-1l16 -3c-10,-12 -5,-5 -17,-5 -1,-5 1,0 0,-3 -8,1 -43,3 -56,1l-1 6c-3,-3 -7,-4 -11,-3 -1,0 -9,-3 -13,-1 -7,2 -1,2 -2,5 -4,0 -3,-1 -3,-1 -4,-3 4,0 -5,-3 -10,-3 -22,3 -34,-1 26,-2 51,-2 77,-3 12,-1 25,-1 36,-2 6,-2 4,-2 8,-2 8,0 16,2 24,-1 5,-1 1,0 4,-3 -7,0 -15,3 -20,-1 -12,-7 9,3 -3,-1 -1,4 -2,2 -7,2l-20 -2c5,-3 30,-4 35,-4 2,2 2,1 0,2 5,-1 2,0 5,-2 2,0 4,-2 4,-2l-18 -1c3,-4 3,0 1,-4 -6,-1 -22,0 -33,2 2,-3 5,-2 9,-4l-30 1c-16,-4 -41,-1 -59,-1 -9,0 0,0 -9,2 -6,2 -5,0 -10,-1 -7,0 -13,1 -21,1 -9,-1 -13,2 -24,0 -9,0 -14,2 -23,0l-1 -8c-6,-1 2,0 -3,0l-1 -1c-6,0 -3,-1 -7,1 0,2 1,4 3,4l6 4c-6,3 -6,3 -14,2l-9 0c-7,1 4,0 -4,1 -5,0 -16,-1 -23,-1 -12,1 -68,2 -71,1l52 -5c5,-2 12,0 17,0 4,-2 2,-2 4,0 7,2 3,0 9,-3 3,5 -1,7 7,3l1 -2c1,0 1,0 1,0 8,-2 3,4 15,-1 -3,-6 -17,-3 -24,-3 -41,2 -94,4 -135,10l-51 7 0 0z"/>
   <path class="fil0" d="M344 5c0,4 2,3 2,4 -2,0 -7,0 -10,3 3,2 6,-2 10,4 -4,1 -10,4 -14,2 -5,-1 -1,-4 -9,-1 -5,1 0,0 -4,1l-5 0c-1,0 -1,0 -1,2 -7,1 -19,0 -27,1 -3,0 -6,1 -9,4 -2,-2 0,0 -1,-3l-1 -1c-4,2 -7,2 -11,4 -5,1 3,-3 -1,0 -4,2 0,-2 -4,2 24,0 46,-1 68,-2 21,0 44,-4 65,-3 -1,0 -1,0 -3,1 -5,3 -18,2 -24,3 -23,3 -58,4 -80,5 -10,0 -30,3 -36,2l-59 1c-5,1 -4,-1 -5,1 -3,0 -3,0 0,3 0,0 -1,1 0,-2l1 -1c7,4 4,1 9,1l21 0c1,0 1,0 1,0 4,0 4,2 10,2 7,-2 15,1 22,0 10,-3 14,0 23,-2l37 0c9,-1 57,-3 61,-2 -5,4 -47,0 -59,6 3,2 7,2 9,2l-10 2c9,5 32,-2 43,2 -14,2 -31,0 -46,3l-32 2c-8,0 -8,1 -15,1 -2,0 -7,0 -13,0 3,3 -2,1 6,3 0,0 4,-2 4,-2 3,0 9,2 13,2l35 -2c9,2 104,-5 122,-6 11,-1 16,-4 26,-4 -1,-4 0,0 -1,-1l-1 -3c3,-1 7,0 10,-5l5 -5c-5,-2 -10,1 -13,-2 5,0 11,2 15,-4 -2,-1 -6,-3 -6,-3 -1,-4 4,-3 -5,-4 1,-3 7,-3 -1,-6 -8,-1 -29,3 -30,-1l22 -2c4,0 5,1 6,-4 -1,-2 0,0 -1,-2 -4,-1 -9,-1 -13,-1 0,0 -4,0 -4,0l-83 4c-1,0 -1,0 -3,1l-6 0 0 0z"/>
   <path class="fil1" d="M357 361c0,1 0,1 0,1 0,1 -4,5 -8,7 -1,1 -3,2 -5,2 0,0 -3,0 -3,0 -4,0 -2,0 -4,0 11,-2 15,-6 17,-12 -4,-5 -2,-1 -5,-5 5,-6 10,-4 17,-18 1,-3 3,-5 3,-7 3,-7 -7,-27 -13,-33 -4,-6 -7,-7 -12,-10 -7,-2 -8,-2 -16,-3 -6,0 -27,6 -35,15 -4,4 -13,24 -12,29 2,9 2,25 7,31 14,21 30,26 57,16 8,-3 12,-7 12,-13l0 0z"/>
   <path class="fil2 str0" d="M954 147c-4,0 -9,0 -15,2 -1,-29 -1,-54 -3,-74 0,-7 0,-15 0,-20 -1,-25 -1,-34 -6,-34 -1,0 -4,1 -9,15 -4,10 -9,28 -15,53 -4,18 -9,37 -13,61 -6,2 -14,2 -21,3 -20,3 -42,6 -68,12 -6,2 -12,5 -18,6 -8,2 -14,5 -20,8 -3,1 -7,3 -10,4 -3,2 -6,3 -9,5 -2,1 -3,3 -5,4l-1 2c0,0 0,1 0,1 0,0 -2,0 -2,2 0,0 0,1 0,1 0,2 0,2 0,2 -1,1 0,1 0,3 0,1 0,3 2,3 1,3 3,3 6,4 1,2 3,2 4,3 2,0 3,2 5,2 3,1 7,3 10,4 6,3 12,6 20,9 12,6 24,12 35,19 18,7 33,16 46,24 -4,27 -10,54 -15,84 0,1 0,1 0,1 0,0 0,0 0,0 0,0 2,0 2,0 4,-30 10,-58 15,-84 4,3 7,5 12,6 3,3 7,6 12,8 0,1 1,1 1,1 2,2 3,2 3,3 2,0 3,2 5,3 3,0 4,2 6,3 13,9 27,20 40,30 0,0 0,0 2,0 0,0 0,0 0,-1 -2,-11 -3,-23 -3,-33 -2,-6 -2,-12 -2,-20 -1,-25 -3,-60 -4,-99 0,-8 -2,-15 -2,-23 6,0 11,0 15,0 0,0 2,-1 2,-1 0,0 -2,-2 -2,-2l0 0 0 0zm-46 -58c15,-59 21,-67 22,-67 0,0 0,0 0,0 3,0 3,14 3,33 0,6 0,13 0,20 0,20 0,45 0,74 -10,0 -19,0 -30,1 -3,0 -6,0 -9,0 5,-24 11,-43 14,-61l0 0 0 0zm-84 152c-11,-7 -23,-13 -37,-19 -6,-3 -12,-6 -18,-9 -4,-1 -7,-3 -10,-4 -2,0 -3,-2 -5,-2 -1,-1 -4,-1 -4,-3 -3,0 -3,-1 -5,-1 0,-2 0,-2 0,-3 0,-2 0,-2 2,-3 1,-2 3,-3 3,-3 3,-3 6,-5 9,-6 3,-2 6,-3 9,-5 7,-3 13,-4 19,-7 6,-2 13,-3 19,-5 25,-7 48,-12 66,-15 7,-1 13,-1 19,-3 -6,32 -13,71 -22,115 -14,-9 -29,-18 -45,-27l0 0 0 0zm81 51c0,0 0,0 -2,0 -1,-2 -3,-3 -4,-5 -2,0 -2,-1 -3,-1 0,0 -2,-2 -3,-2 -3,-3 -6,-4 -11,-7 -4,-3 -7,-6 -12,-8 9,-45 17,-84 24,-116 3,0 6,-1 8,-1 10,0 21,-2 31,-2 0,8 2,15 2,23 1,39 4,74 7,99 0,8 2,14 3,20 0,10 2,21 3,31 -15,-10 -28,-21 -43,-31l0 0 0 0zm131 -61c0,0 0,0 0,0 -9,13 -15,17 -20,16 -3,0 -4,-3 -6,-7 -1,-3 -3,-4 -6,-4 0,0 0,0 0,0 -3,0 -6,4 -12,33 2,0 2,-1 2,-1 0,-8 1,-17 3,-27 0,-4 0,-5 0,-7 0,-1 -2,-3 -3,-3 -2,-1 -3,0 -3,2 0,3 0,4 0,6 -2,12 -2,21 -2,29 2,3 2,4 2,6 0,3 0,4 0,7 0,0 0,0 0,0 0,0 0,0 0,0 0,0 0,2 0,3 0,0 1,0 1,0 0,0 0,0 0,0 0,0 2,0 2,-1 0,0 0,-2 -2,-2 6,-39 11,-44 12,-44l0 0c2,0 3,2 5,4 1,3 3,7 6,7 6,2 13,-3 22,-15 0,0 0,-2 -1,-2l0 0 0 0zm126 -58c0,0 0,-2 -12,-3 0,0 0,0 0,0 -5,0 -9,-2 -17,-2 -13,0 -31,-1 -52,0 -8,0 -14,0 -21,2 1,-11 3,-21 4,-32 2,-9 3,-18 5,-25 3,-11 3,-15 1,-15 -1,0 -4,3 -6,13 -3,9 -4,18 -6,27 -1,11 -3,21 -4,32 -9,1 -18,3 -24,4 -8,0 -12,2 -17,3 0,0 0,0 0,0 -4,0 -9,0 -12,2 -1,0 -1,0 -1,0 0,0 1,0 1,0 0,0 0,0 0,0 3,0 8,0 12,-2 0,0 0,0 0,0 5,0 9,0 17,0 6,-1 15,-1 24,-1 -2,10 -3,21 -3,31 0,12 0,21 0,32 0,2 0,5 0,8 0,0 0,1 0,3 0,1 0,1 0,3 0,4 0,9 1,13 0,9 2,18 2,26 1,15 4,28 6,43 0,0 0,0 1,0 0,0 0,0 0,0 0,0 0,0 0,0 -1,-15 -4,-30 -6,-43 0,-8 0,-17 0,-26 0,-4 0,-9 -1,-13 0,-2 0,-2 0,-3 0,-2 0,-3 1,-5 0,-1 0,-4 0,-6 0,-11 0,-20 0,-30 2,-11 3,-23 5,-33 6,-2 13,-2 21,-2 21,-1 39,-1 52,-3 8,0 12,0 17,0 0,0 0,0 0,0 8,0 12,2 12,2 0,0 -1,1 -15,4 0,0 0,0 0,0 0,0 0,0 1,0 13,-1 14,-3 14,-4l0 0 0 0zm281 -152c0,0 0,0 -1,0 -3,0 -5,1 -8,3 -6,1 -10,6 -15,12 -10,12 -18,28 -24,47 -7,18 -12,39 -15,61 -1,21 -1,42 2,60 -11,9 -20,17 -29,24 0,-18 -1,-34 -3,-49 -1,-9 -3,-17 -4,-24 -2,-8 -5,-14 -6,-20 -3,-10 -6,-18 -9,-25 -3,-9 -6,-18 -9,-27 0,0 -2,0 -2,0 0,0 -2,0 0,1 3,8 6,17 9,27 2,6 5,15 6,24 2,8 3,14 5,21 1,8 3,15 3,24 1,17 3,35 1,53 0,1 0,1 0,3 -10,8 -21,15 -30,21 -41,30 -71,53 -66,77 3,13 15,25 27,27 0,0 1,0 1,0 9,0 17,-5 24,-12 5,-5 11,-12 17,-21 5,-5 8,-11 12,-17 2,-4 3,-7 5,-10 1,-3 3,-5 3,-6 1,-2 1,-5 3,-6 3,-8 6,-17 7,-26 3,-9 5,-19 5,-29 0,-1 0,-3 1,-3 9,-7 18,-16 29,-24 0,0 0,0 0,0 1,20 4,37 7,50 3,12 6,23 8,30 3,11 6,21 9,32 0,0 1,0 1,0 0,0 0,0 0,-2 -3,-9 -6,-21 -9,-31 -1,-8 -3,-17 -4,-29 -2,-15 -5,-32 -6,-51 0,-2 0,-3 0,-5 24,-22 46,-48 64,-79 23,-36 29,-64 18,-83 -4,-9 -15,-18 -27,-18l0 0 0 0zm-167 338c0,0 0,0 -1,0 -11,-1 -23,-13 -26,-25 -4,-24 26,-45 66,-75 10,-6 19,-14 29,-22 -3,19 -6,35 -10,49 -2,3 -2,4 -3,6 0,1 -2,4 -2,6 -1,3 -4,7 -6,10 -3,6 -6,12 -9,18 -5,9 -11,17 -15,21 -8,8 -15,12 -23,12l0 0 0 0zm175 -237c-18,30 -41,55 -63,76 0,-16 0,-34 1,-54 2,-21 6,-42 12,-60 3,-9 6,-17 9,-24 5,-9 8,-15 12,-21 3,-6 8,-11 14,-14 1,-1 4,-1 6,-3 1,0 1,0 3,0 9,0 19,9 24,18 10,18 4,46 -18,82l0 0 0 0zm6 96c-3,-2 -5,0 -8,1 -1,0 -3,2 -4,2 -2,3 -5,4 -6,9 -3,3 -5,7 -5,12 -1,5 0,9 0,12 2,5 3,8 5,9 1,2 3,3 4,3 2,3 5,5 6,5 0,0 2,0 2,0 7,0 15,-14 16,-24 2,-13 -3,-28 -10,-29l0 0zm9 27c-2,12 -9,24 -17,24 -1,0 -3,-1 -4,-3 -2,-1 -2,-3 -3,-4 0,-2 -2,-5 -2,-9 -1,-3 -1,-6 0,-11 0,-3 2,-8 3,-11 2,-3 3,-6 5,-7 0,-2 1,-3 1,-3 3,-2 5,-2 6,-2 0,0 2,0 2,0 7,2 10,15 9,26l0 0zm147 -72c0,0 0,-2 -12,-3 0,0 0,0 0,0 -4,0 -9,-2 -16,-2 -14,0 -32,-1 -53,0 -7,0 -13,0 -21,2 2,-11 3,-21 5,-32 1,-9 3,-18 4,-25 3,-11 2,-15 0,-15 0,0 -3,3 -6,13 -1,9 -3,18 -4,27 -2,11 -3,21 -5,32 -9,1 -18,3 -26,4 -6,0 -10,2 -15,3 0,0 0,0 0,0 -4,0 -9,0 -12,2 -1,0 -1,0 -1,0 0,0 0,0 1,0 0,0 0,0 0,0 3,0 8,0 12,-2 0,0 0,0 0,0 5,0 9,0 17,0 6,-1 15,-1 24,-1 -1,10 -3,21 -3,31 0,12 0,21 0,32 0,2 0,5 0,8 0,0 0,1 0,3 0,1 0,1 0,3 0,4 0,9 2,13 0,9 1,18 1,26 2,15 3,28 6,43 0,0 0,0 2,0 0,0 0,0 0,0 0,0 0,0 0,0 -2,-15 -5,-30 -6,-43 0,-8 0,-17 0,-26 -2,-4 -2,-9 -2,-13 0,-2 0,-2 0,-3 0,-2 0,-3 0,-5 0,-1 0,-4 0,-6 2,-11 2,-20 2,-30 1,-11 3,-23 4,-33 6,-2 14,-2 21,-2 21,-1 39,-1 53,-3 7,0 12,0 16,0 0,0 0,0 0,0 8,0 12,2 12,2 0,0 -1,1 -15,4 0,0 0,0 0,0 0,0 0,0 0,0 14,-1 15,-3 15,-4l0 0 0 0zm136 58c0,0 -2,0 -2,0 -31,50 -67,79 -90,70 -8,-3 -14,-9 -17,-18 0,0 0,0 0,0 -1,-5 -3,-9 -4,-14 -2,-6 -2,-12 -3,-18 0,-4 0,-7 -2,-12 0,0 0,0 0,-2 53,-39 109,-103 94,-157 -3,-9 -8,-22 -15,-29 0,0 0,-2 0,-2 -2,-1 -5,-3 -8,-4 0,-2 -1,-2 -3,-2 -1,-1 -4,-1 -6,-1 -3,1 -6,3 -9,4 -3,2 -6,5 -9,6 -3,3 -6,6 -9,9 -5,8 -9,16 -14,23 -7,17 -15,36 -19,57 -5,21 -8,42 -8,60 0,9 0,18 2,27 0,3 0,8 1,11 -31,23 -54,32 -58,27 -2,0 -5,-3 -6,-7 0,0 0,0 0,0 -2,-3 -2,-5 -2,-9 0,0 0,-2 0,-3 11,-5 21,-14 20,-22 0,-6 -5,-10 -9,-10 0,0 0,0 0,0 -2,0 -5,1 -6,4 -2,0 -2,2 -3,2 -2,1 -3,4 -5,7 -1,3 -3,8 -3,13 0,3 0,7 2,10 0,3 1,6 3,9 1,2 3,3 4,5 0,0 0,0 0,0 2,1 2,3 3,3 2,1 3,1 5,1 10,0 31,-10 55,-28 0,3 2,7 2,10 0,3 1,6 1,9 5,18 11,38 26,42 3,2 4,2 9,2 23,0 54,-26 83,-71 0,0 0,-2 0,-2l0 0 0 0zm-187 10c0,-4 2,-8 2,-10 1,-3 1,-6 3,-9 0,-1 1,-3 1,-3 2,-1 3,-3 5,-3 0,0 0,0 0,0 3,0 7,5 7,9 0,6 -7,14 -18,20 0,-1 0,-3 0,-4l0 0 0 0zm69 -5c0,-3 0,-6 0,-8 -1,-9 -1,-18 0,-27 0,-18 3,-37 8,-58 4,-20 10,-39 18,-56 4,-9 9,-16 13,-23 2,-3 5,-6 8,-9 2,-3 5,-4 8,-6 3,-3 6,-4 9,-4 1,0 1,0 3,0 1,0 1,0 1,0 12,4 21,24 24,35 15,54 -39,117 -92,156l0 0 0 0zm294 -51c-2,-14 -5,-17 -8,-17 -4,-1 -7,3 -13,12 0,2 0,2 0,2 1,0 1,0 1,0 6,-11 9,-14 12,-12 2,0 5,3 6,13 0,2 0,3 0,3 2,11 2,24 2,38 0,15 0,29 0,38 0,1 0,3 0,3 0,6 -2,12 -2,18 0,0 0,1 2,1 0,0 0,0 0,0 0,0 0,0 0,-1 0,-6 1,-12 1,-18 0,0 0,-2 0,-3 2,-9 2,-23 2,-38 0,-14 0,-27 -3,-38 0,0 0,-1 0,-1l0 0 0 0z"/>
  </g>
 </g>
</svg>
