<?xml version="1.0" encoding="UTF-8"?>
<!DOCTYPE svg PUBLIC "-//W3C//DTD SVG 1.1//EN" "http://www.w3.org/Graphics/SVG/1.1/DTD/svg11.dtd">
<!-- Creator: CorelDRAW X8 -->
<svg xmlns="http://www.w3.org/2000/svg" xml:space="preserve" width="8.5in" height="11in" version="1.1" style="shape-rendering:geometricPrecision; text-rendering:geometricPrecision; image-rendering:optimizeQuality; fill-rule:evenodd; clip-rule:evenodd"
viewBox="0 0 8500 11000"
 xmlns:xlink="http://www.w3.org/1999/xlink">
 <defs>
  <style type="text/css">
   <![CDATA[
    .fil2 {fill:none}
    .fil0 {fill:#D2AE6D}
    .fil1 {fill:#ED3237}
   ]]>
  </style>
    <clipPath id="id0">
     <path d="M3347 5725l217 0 -343 -461 -108 147 110 148 61 18 -48 0 111 148 0 0z"/>
    </clipPath>
 </defs>
 <g id="Layer_x0020_1">
  <metadata id="CorelCorpID_0Corel-Layer"/>
  <g id="_347195562896">
   <polygon class="fil0" points="3060,5486 2883,5725 3236,5728 3173,5642 3103,5622 3158,5622 "/>
   <g>
   </g>
   <g>
   </g>
   <g style="clip-path:url(#id0)">
    <g id="_347220128192">
     <rect class="fil1" transform="matrix(0.488783 -0 0.583021 0.782407 2331.29 4571.12)" width="31.2362" height="2217.62"/>
     <rect class="fil1" transform="matrix(0.488783 -0 0.583021 0.782407 2365.32 4571.12)" width="31.2362" height="2217.62"/>
     <rect class="fil1" transform="matrix(0.488783 -0 0.583021 0.782407 2399.36 4571.12)" width="31.2362" height="2217.62"/>
     <rect class="fil1" transform="matrix(0.488783 -0 0.583021 0.782407 2433.39 4571.12)" width="31.2362" height="2217.62"/>
     <rect class="fil1" transform="matrix(0.488783 -0 0.583021 0.782407 2467.42 4571.12)" width="31.2362" height="2217.62"/>
     <rect class="fil1" transform="matrix(0.488783 -0 0.583021 0.782407 2501.45 4571.12)" width="31.2362" height="2217.62"/>
     <rect class="fil1" transform="matrix(0.488783 -0 0.583021 0.782407 2535.48 4571.12)" width="31.2362" height="2217.62"/>
     <rect class="fil1" transform="matrix(0.488783 -0 0.583021 0.782407 2569.52 4571.12)" width="31.2362" height="2217.62"/>
     <rect class="fil1" transform="matrix(0.488783 -0 0.583021 0.782407 2603.55 4571.12)" width="31.2362" height="2217.62"/>
     <rect class="fil1" transform="matrix(0.488783 -0 0.583021 0.782407 2637.58 4571.12)" width="31.2362" height="2217.62"/>
     <rect class="fil1" transform="matrix(0.488783 -0 0.583021 0.782407 2671.61 4571.12)" width="31.2362" height="2217.62"/>
     <rect class="fil1" transform="matrix(0.488783 -0 0.583021 0.782407 2705.64 4571.12)" width="31.2362" height="2217.62"/>
     <rect class="fil1" transform="matrix(0.488783 -0 0.583021 0.782407 2739.68 4571.12)" width="31.2362" height="2217.62"/>
     <rect class="fil1" transform="matrix(0.488783 -0 0.583021 0.782407 2773.71 4571.12)" width="31.2362" height="2217.62"/>
     <rect class="fil1" transform="matrix(0.488783 -0 0.583021 0.782407 2807.74 4571.12)" width="31.2362" height="2217.62"/>
     <rect class="fil1" transform="matrix(0.488783 -0 0.583021 0.782407 2841.77 4571.12)" width="31.2362" height="2217.62"/>
     <rect class="fil1" transform="matrix(0.488783 -0 0.583021 0.782407 2875.8 4571.12)" width="31.2362" height="2217.62"/>
    </g>
   </g>
   <polygon class="fil2" points="3347,5725 3564,5725 3221,5264 3113,5411 3223,5559 3284,5577 3236,5577 3347,5725 "/>
   <polygon class="fil2" points="3347,5725 3564,5725 3221,5264 3113,5411 3223,5559 3284,5577 3236,5577 "/>
   <rect class="fil0" x="3108" y="5577" width="175.787" height="45.1695"/>
  </g>
 </g>
</svg>
