<?xml version="1.0" encoding="UTF-8"?>
<!DOCTYPE svg PUBLIC "-//W3C//DTD SVG 1.1//EN" "http://www.w3.org/Graphics/SVG/1.1/DTD/svg11.dtd">
<!-- Creator: CorelDRAW X8 -->
<svg xmlns="http://www.w3.org/2000/svg" xml:space="preserve" width="2.29405in" height="1.47088in" version="1.1" style="shape-rendering:geometricPrecision; text-rendering:geometricPrecision; image-rendering:optimizeQuality; fill-rule:evenodd; clip-rule:evenodd"
viewBox="0 0 792 508"
 xmlns:xlink="http://www.w3.org/1999/xlink">
 <defs>
  <style type="text/css">
   <![CDATA[
    .str0 {stroke:#373435;stroke-width:1.03552}
    .fil2 {fill:#5E5E5E}
    .fil1 {fill:#B51700}
    .fil3 {fill:#EE220C}
    .fil0 {fill:#FF9300}
    .fil4 {fill:#373435;fill-rule:nonzero}
   ]]>
  </style>
 </defs>
 <g id="Layer_x0020_1">
  <metadata id="CorelCorpID_0Corel-Layer"/>
  <g id="_1701360666304">
   <path class="fil0" d="M158 143c0,0 -1,-1 -1,-1 -1,1 -1,-2 -4,-3 1,1 1,3 -1,3 -4,1 0,-5 -12,-2 6,3 2,-1 5,3 -13,0 -27,3 -40,2 0,0 0,1 0,2 1,2 2,0 -2,3l-1 1c7,-2 8,2 11,-3 2,3 -2,4 -7,5 -5,0 -7,1 -11,-1 -2,3 -1,2 -2,6l-10 1c2,4 -1,1 2,3 2,1 6,1 6,1 2,0 2,-1 1,1l-5 3c0,0 -1,1 -1,1 5,0 11,-1 17,0 4,1 2,-1 4,2 -4,2 -5,0 -9,1 1,3 0,1 5,2 0,1 0,5 -5,1l1 5c0,0 0,0 0,0l-19 2c0,3 0,1 1,2 5,3 10,0 16,1l2 5c5,-1 44,3 51,3 56,7 215,6 281,3 28,-1 58,0 86,0 6,0 7,-1 12,-2 5,-1 10,0 15,-1l-7 -2c12,-1 32,-2 41,-9 -2,1 -4,1 -6,1l5 -3c0,-8 -3,-6 -4,-12 4,-3 3,-2 7,-3l-3 -2c-6,-5 -2,-3 -2,-5 -6,-1 -8,1 -13,1 -6,0 -11,0 -17,0 -10,1 -24,-1 -33,-2 -73,-9 -114,-11 -191,-15 0,1 1,0 1,1 0,0 1,0 1,0 5,2 17,2 23,3l21 1c0,2 0,4 0,5l1 3c0,0 0,0 0,1 3,-1 6,0 10,0 5,0 8,0 10,-1 11,8 17,4 31,5 4,1 6,3 5,5 -5,2 -4,-1 -8,-2l-11 -2c-2,0 -8,-1 -10,-1 -2,3 1,3 0,4 -3,-1 -6,-1 -9,-1l-23 1c-5,0 -7,1 -11,1 -8,0 -16,-1 -24,0 -17,3 -31,-3 -43,-1 -12,3 -25,0 -37,1 -9,0 -6,-1 -11,-2 -5,-1 -17,0 -23,2l-2 -2c-1,0 -1,0 -2,0l0 -3c-7,-2 -5,-4 -14,-3 -2,3 -1,-1 0,1 0,0 1,0 0,2 -2,0 -8,1 -10,1 -4,0 -4,-1 -6,-2l6 -1 -6 -3 49 -1c9,-1 11,-6 3,-5 1,0 4,0 4,0 1,0 1,0 2,0l3 -2c-9,-4 -3,-1 -15,-1 -3,-1 -14,-2 -15,-2 7,-5 51,-1 57,-2 -6,-4 -80,-3 -93,-2l-2 0c0,0 0,0 -1,0l3 3 -9 0c0,-2 1,-2 2,-3 -14,-2 -11,0 -10,4z"/>
   <path class="fil1" d="M176 84l6 2c5,-1 9,-3 15,-3 6,-1 19,-4 24,-2 -3,2 -11,2 -15,2 -15,1 -32,6 -46,10 2,4 3,2 -9,7 -4,1 -12,6 -14,9 3,0 19,-5 30,-5 10,0 20,-3 32,-2 -6,-4 -52,9 -58,12 5,0 8,-1 14,0 5,0 8,0 14,0 5,0 7,2 12,3 14,1 29,0 42,1 9,1 18,-1 28,0 40,1 79,0 118,-1l2 -3 1 3c7,0 14,0 21,-2 3,-1 6,1 11,0 3,0 1,1 4,-2 -1,0 -3,1 -5,0 4,-4 22,-2 28,-2 0,0 0,0 1,0 0,0 0,0 0,0 1,0 2,-1 2,-1 6,-1 10,1 15,-1l27 -2c3,0 3,0 6,-1 2,-1 2,-2 5,-2 3,0 8,1 11,0l2 -1c2,-1 2,1 6,-1 0,0 -1,-1 -1,-1l12 -2c-8,-9 -4,-4 -13,-4 -1,-4 1,0 0,-2 -6,1 -33,2 -43,1l-1 4c-2,-2 -5,-3 -8,-2 -1,0 -7,-2 -10,-1 -6,2 -1,2 -2,4 -3,0 -2,-1 -2,-1 -3,-2 3,0 -4,-2 -8,-2 -17,2 -26,-1 20,-1 39,-1 59,-2 9,-1 19,-1 28,-2 4,-1 3,-1 6,-1 6,0 12,1 18,-1 4,-1 1,0 3,-2 -5,0 -11,2 -15,-1 -9,-5 7,2 -2,-1 -1,3 -2,2 -6,2l-15 -2c4,-2 23,-3 27,-3 1,2 1,1 0,2 4,-1 1,0 4,-2 1,0 3,-1 3,-1l-14 -1c2,-3 2,0 1,-3 -5,-1 -17,0 -26,1 2,-2 4,-1 7,-3l-23 1c-12,-3 -31,-1 -45,-1 -7,0 0,0 -7,2 -5,1 -4,0 -8,-1 -5,0 -10,1 -16,1 -7,-1 -10,1 -18,0 -7,0 -11,1 -18,0l-1 -6c-4,-1 2,0 -2,0l-1 -1c-4,0 -2,-1 -5,1 0,1 1,3 2,3l5 3c-5,2 -5,2 -11,1l-7 0c-5,1 3,0 -3,1 -4,0 -12,-1 -18,-1 -9,1 -52,2 -54,1l40 -4c4,-1 9,0 13,0 3,-1 1,-1 3,0 5,2 2,0 7,-2 2,4 -1,5 5,2l1 -1c1,0 1,0 1,0 6,-2 2,3 11,-1 -2,-5 -13,-2 -18,-2 -32,1 -72,3 -104,7l-39 6z"/>
   <path class="fil2" d="M344 4c0,3 2,2 2,3 -2,0 -6,0 -8,2 2,2 5,-1 8,3 -3,1 -8,3 -11,2 -4,-1 -1,-3 -7,-1 -4,1 0,0 -3,1l-4 0c-1,0 -1,0 -1,1 -5,1 -14,0 -20,1 -3,0 -5,1 -7,3 -2,-1 0,0 -1,-2l-1 -1c-3,2 -5,2 -8,3 -4,1 2,-2 -1,0 -3,2 0,-1 -3,2 18,0 35,-1 52,-2 16,0 34,-3 50,-2 -1,0 -1,0 -2,1 -4,2 -14,1 -19,2 -17,2 -44,3 -61,4 -8,0 -23,2 -28,1l-45 1c-4,1 -3,-1 -4,1 -2,0 -2,0 0,2 0,0 -1,1 0,-1l1 -1c5,3 3,1 7,1l16 0c1,0 1,0 1,0 3,0 3,1 7,1 6,-1 12,1 17,0 8,-2 11,0 18,-1l28 0c7,-1 44,-3 47,-2 -4,3 -36,0 -45,5 2,1 5,1 7,1l-8 2c7,4 25,-2 33,1 -11,2 -24,0 -35,3l-25 1c-6,0 -6,1 -11,1 -2,0 -6,0 -10,0 2,2 -2,1 4,2 0,0 3,-1 3,-1 3,0 7,1 10,1l27 -1c7,1 80,-4 94,-5 8,-1 12,-3 20,-3 -1,-3 0,0 -1,-1l-1 -2c3,-1 6,0 8,-4l4 -4c-4,-1 -8,1 -10,-1 4,0 8,1 11,-3 -1,-1 -4,-3 -4,-3 -1,-3 3,-2 -4,-3 1,-2 5,-2 -1,-4 -6,-1 -22,2 -23,-1l17 -2c3,0 4,1 5,-3 -1,-1 0,0 -1,-1 -3,-1 -7,-1 -10,-1 0,0 -3,0 -3,0l-64 3c-1,0 -1,0 -2,1l-5 0z"/>
   <path class="fil3" d="M354 277c0,1 0,1 0,1 0,1 -3,4 -6,5 -1,1 -2,2 -4,2 0,0 -2,0 -2,0 -3,0 -2,0 -3,0 8,-2 11,-5 13,-9 -3,-4 -2,-1 -4,-4 4,-5 8,-3 13,-14 1,-2 2,-4 2,-5 3,-6 -5,-21 -10,-26 -3,-4 -5,-5 -9,-7 -5,-2 -6,-2 -12,-3 -5,0 -21,5 -27,12 -3,3 -10,18 -9,22 1,7 1,19 5,24 11,16 23,20 44,12 6,-2 9,-5 9,-10z"/>
  </g>
  <path class="fil4 str0" d="M144 365c-3,0 -6,0 -10,1 -1,-19 -1,-36 -2,-49 0,-5 0,-10 0,-13 -1,-17 -1,-23 -4,-23 -1,0 -3,1 -6,10 -3,7 -6,19 -10,35 -3,12 -6,25 -9,41 -4,1 -9,1 -14,2 -13,2 -28,4 -45,8 -4,1 -8,3 -12,4 -5,1 -9,3 -13,5 -2,1 -5,2 -7,3 -2,1 -4,2 -6,3 -1,1 -2,2 -3,3l-1 1c0,0 0,1 0,1 0,0 -1,0 -1,1 0,0 0,1 0,1 0,1 0,1 0,1 -1,1 0,1 0,2 0,1 0,2 1,2 1,2 2,2 4,3 1,1 2,1 3,2 1,0 2,1 3,1 2,1 5,2 7,3 4,2 8,4 13,6 8,4 16,8 23,12 12,5 22,11 31,16 -3,18 -7,36 -10,56 0,1 0,1 0,1 0,0 0,0 0,0 0,0 1,0 1,0 3,-20 7,-39 10,-56 3,2 5,3 8,4 2,2 5,4 8,5 0,1 1,1 1,1 1,1 2,1 2,2 1,0 2,1 3,2 2,0 3,1 4,2 9,6 18,13 27,20 0,0 0,0 1,0 0,0 0,0 0,-1 -1,-7 -2,-15 -2,-22 -1,-4 -1,-8 -1,-13 -1,-17 -2,-40 -3,-66 0,-5 -1,-10 -1,-15 4,0 7,0 10,0 0,0 1,-1 1,-1 0,0 -1,-1 -1,-1l0 0zm-31 -39c10,-39 14,-44 15,-44 0,0 0,0 0,0 2,0 2,9 2,22 0,4 0,8 0,13 0,13 0,30 0,49 -7,0 -13,0 -20,1 -2,0 -4,0 -6,0 3,-16 7,-29 9,-41l0 0zm-56 101c-7,-4 -15,-8 -24,-12 -4,-2 -8,-4 -12,-6 -3,-1 -5,-2 -7,-3 -1,0 -2,-1 -3,-1 -1,-1 -3,-1 -3,-2 -2,0 -2,-1 -3,-1 0,-1 0,-1 0,-2 0,-1 0,-1 1,-2 1,-1 2,-2 2,-2 2,-2 4,-3 6,-4 2,-1 4,-2 6,-3 5,-2 9,-3 13,-5 4,-1 8,-2 12,-3 17,-5 32,-8 44,-10 5,-1 9,-1 13,-2 -4,21 -9,47 -15,76 -9,-6 -19,-12 -30,-18l0 0zm54 34c0,0 0,0 -1,0 -1,-1 -2,-2 -3,-3 -1,0 -1,-1 -2,-1 0,0 -1,-1 -2,-1 -2,-2 -4,-3 -7,-5 -3,-2 -5,-4 -8,-5 6,-30 11,-56 16,-77 2,0 4,-1 5,-1 7,0 14,-1 21,-1 0,5 1,10 1,15 1,26 3,49 5,66 0,5 1,9 2,13 0,7 1,14 2,21 -10,-7 -19,-14 -29,-21l0 0zm87 -40c0,0 0,0 0,0 -6,8 -10,11 -13,10 -2,0 -3,-2 -4,-4 -1,-2 -2,-3 -4,-3 0,0 0,0 0,0 -2,0 -4,3 -8,22 1,0 1,-1 1,-1 0,-5 1,-11 2,-18 0,-2 0,-3 0,-4 0,-1 -1,-2 -2,-2 -1,-1 -2,0 -2,1 0,2 0,3 0,4 -1,8 -1,14 -1,19 1,2 1,3 1,4 0,2 0,3 0,5 0,0 0,0 0,0 0,0 0,0 0,0 0,0 0,1 0,2 0,0 1,0 1,0 0,0 0,0 0,0 0,0 1,0 1,-1 0,0 0,-1 -1,-1 4,-26 7,-29 8,-29l0 0c1,0 2,1 3,2 1,2 2,5 4,5 4,1 9,-2 15,-10 0,0 0,-1 -1,-1l0 0zm84 -39c0,0 0,-1 -8,-2 0,0 0,0 0,0 -3,0 -6,-1 -11,-1 -9,0 -21,-1 -35,0 -5,0 -9,0 -14,1 1,-7 2,-14 3,-21 1,-6 2,-12 3,-17 2,-7 2,-10 1,-10 -1,0 -3,2 -4,9 -2,6 -3,12 -4,18 -1,7 -2,14 -3,21 -6,1 -12,2 -16,3 -5,0 -8,1 -11,2 0,0 0,0 0,0 -3,0 -6,0 -8,1 -1,0 -1,0 -1,0 0,0 1,0 1,0 0,0 0,0 0,0 2,0 5,0 8,-1 0,0 0,0 0,0 3,0 6,0 11,0 4,-1 10,-1 16,-1 -1,7 -2,14 -2,21 0,8 0,14 0,21 0,1 0,3 0,5 0,0 0,1 0,2 0,1 0,1 0,2 0,3 0,6 1,9 0,6 1,12 1,17 1,10 3,19 4,29 0,0 0,0 1,0 0,0 0,0 0,0 0,0 0,0 0,0 -1,-10 -3,-20 -4,-29 0,-5 0,-11 0,-17 0,-3 0,-6 -1,-9 0,-1 0,-1 0,-2 0,-1 0,-2 1,-3 0,-1 0,-3 0,-4 0,-7 0,-13 0,-20 1,-7 2,-15 3,-22 4,-1 9,-1 14,-1 14,-1 26,-1 35,-2 5,0 8,0 11,0 0,0 0,0 0,0 5,0 8,1 8,1 0,0 -1,1 -10,3 0,0 0,0 0,0 0,0 0,0 1,0 8,-1 9,-2 9,-3l0 0zm187 -101c0,0 0,0 -1,0 -2,0 -3,1 -5,2 -4,1 -7,4 -10,8 -7,8 -12,19 -16,31 -5,12 -8,26 -10,41 -1,14 -1,28 1,40 -7,6 -13,11 -19,16 0,-12 -1,-23 -2,-33 -1,-6 -2,-11 -3,-16 -1,-5 -3,-9 -4,-13 -2,-7 -4,-12 -6,-17 -2,-6 -4,-12 -6,-18 0,0 -1,0 -1,0 0,0 -1,0 0,1 2,5 4,11 6,18 1,4 3,10 4,16 1,5 2,9 3,14 1,5 2,10 2,16 1,11 2,23 1,35 0,1 0,1 0,2 -7,5 -14,10 -20,14 -27,20 -47,35 -44,51 2,9 10,17 18,18 0,0 1,0 1,0 6,0 11,-3 16,-8 3,-3 7,-8 11,-14 3,-3 5,-7 8,-11 1,-3 2,-5 3,-7 1,-2 2,-3 2,-4 1,-1 1,-3 2,-4 2,-5 4,-11 5,-17 2,-6 3,-13 3,-19 0,-1 0,-2 1,-2 6,-5 12,-11 19,-16 0,0 0,0 0,0 1,13 3,24 5,33 2,8 4,15 5,20 2,7 4,14 6,21 0,0 1,0 1,0 0,0 0,0 0,-1 -2,-6 -4,-14 -6,-21 -1,-5 -2,-11 -3,-19 -1,-10 -3,-21 -4,-34 0,-1 0,-2 0,-3 16,-15 31,-32 43,-53 15,-24 19,-42 12,-55 -3,-6 -10,-12 -18,-12l0 0zm-111 225c0,0 0,0 -1,0 -7,-1 -15,-9 -17,-17 -3,-16 17,-30 44,-50 6,-4 12,-9 19,-14 -2,12 -4,23 -7,32 -1,2 -1,3 -2,4 0,1 -1,3 -1,4 -1,2 -3,5 -4,7 -2,4 -4,8 -6,12 -3,6 -7,11 -10,14 -5,5 -10,8 -15,8l0 0zm116 -158c-12,20 -27,37 -42,51 0,-11 0,-23 1,-36 1,-14 4,-28 8,-40 2,-6 4,-11 6,-16 3,-6 5,-10 8,-14 2,-4 5,-7 9,-9 1,-1 3,-1 4,-2 1,0 1,0 2,0 6,0 13,6 16,12 7,12 3,30 -12,54l0 0zm4 64c-2,-1 -3,0 -5,1 -1,0 -2,1 -3,1 -1,2 -3,3 -4,6 -2,2 -3,5 -3,8 -1,3 0,6 0,8 1,3 2,5 3,6 1,1 2,2 3,2 1,2 3,3 4,3 0,0 1,0 1,0 5,0 10,-9 11,-16 1,-8 -2,-18 -7,-19zm6 18c-1,8 -6,16 -11,16 -1,0 -2,-1 -3,-2 -1,-1 -1,-2 -2,-3 0,-1 -1,-3 -1,-6 -1,-2 -1,-4 0,-7 0,-2 1,-5 2,-7 1,-2 2,-4 3,-5 0,-1 1,-2 1,-2 2,-1 3,-1 4,-1 0,0 1,0 1,0 5,1 7,10 6,17l0 0zm98 -48c0,0 0,-1 -8,-2 0,0 0,0 0,0 -3,0 -6,-1 -11,-1 -9,0 -21,-1 -35,0 -5,0 -9,0 -14,1 1,-7 2,-14 3,-21 1,-6 2,-12 3,-17 2,-7 1,-10 0,-10 0,0 -2,2 -4,9 -1,6 -2,12 -3,18 -1,7 -2,14 -3,21 -6,1 -12,2 -17,3 -4,0 -7,1 -10,2 0,0 0,0 0,0 -3,0 -6,0 -8,1 -1,0 -1,0 -1,0 0,0 0,0 1,0 0,0 0,0 0,0 2,0 5,0 8,-1 0,0 0,0 0,0 3,0 6,0 11,0 4,-1 10,-1 16,-1 -1,7 -2,14 -2,21 0,8 0,14 0,21 0,1 0,3 0,5 0,0 0,1 0,2 0,1 0,1 0,2 0,3 0,6 1,9 0,6 1,12 1,17 1,10 2,19 4,29 0,0 0,0 1,0 0,0 0,0 0,0 0,0 0,0 0,0 -1,-10 -3,-20 -4,-29 0,-5 0,-11 0,-17 -1,-3 -1,-6 -1,-9 0,-1 0,-1 0,-2 0,-1 0,-2 0,-3 0,-1 0,-3 0,-4 1,-7 1,-13 1,-20 1,-7 2,-15 3,-22 4,-1 9,-1 14,-1 14,-1 26,-1 35,-2 5,0 8,0 11,0 0,0 0,0 0,0 5,0 8,1 8,1 0,0 -1,1 -10,3 0,0 0,0 0,0 0,0 0,0 0,0 9,-1 10,-2 10,-3l0 0zm90 39c0,0 -1,0 -1,0 -21,33 -45,52 -60,46 -5,-2 -9,-6 -11,-12 0,0 0,0 0,0 -1,-3 -2,-6 -3,-9 -1,-4 -1,-8 -2,-12 0,-3 0,-5 -1,-8 0,0 0,0 0,-1 35,-26 72,-69 62,-105 -2,-6 -5,-14 -10,-19 0,0 0,-1 0,-1 -1,-1 -3,-2 -5,-3 0,-1 -1,-1 -2,-1 -1,-1 -3,-1 -4,-1 -2,1 -4,2 -6,3 -2,1 -4,3 -6,4 -2,2 -4,4 -6,6 -3,5 -6,10 -9,15 -5,11 -10,24 -13,38 -3,14 -5,28 -5,40 0,6 0,12 1,18 0,2 0,5 1,7 -21,15 -36,21 -39,18 -1,0 -3,-2 -4,-5 0,0 0,0 0,0 -1,-2 -1,-3 -1,-6 0,0 0,-1 0,-2 7,-3 14,-9 13,-14 0,-4 -3,-7 -6,-7 0,0 0,0 0,0 -1,0 -3,1 -4,3 -1,0 -1,1 -2,1 -1,1 -2,3 -3,5 -1,2 -2,5 -2,8 0,2 0,5 1,7 0,2 1,4 2,6 1,1 2,2 3,3 0,0 0,0 0,0 1,1 1,2 2,2 1,1 2,1 3,1 7,0 21,-7 37,-19 0,2 1,5 1,7 0,2 1,4 1,6 3,12 7,25 17,28 2,1 3,1 6,1 15,0 36,-17 55,-47 0,0 0,-1 0,-1l0 0zm-124 6c0,-2 1,-5 1,-6 1,-2 1,-4 2,-6 0,-1 1,-2 1,-2 1,-1 2,-2 3,-2 0,0 0,0 0,0 2,0 5,3 5,6 0,4 -5,9 -12,13 0,-1 0,-2 0,-3l0 0zm46 -3c0,-2 0,-4 0,-5 -1,-6 -1,-12 0,-18 0,-12 2,-25 5,-39 3,-13 7,-26 12,-37 3,-6 6,-11 9,-15 1,-2 3,-4 5,-6 1,-2 3,-3 5,-4 2,-2 4,-3 6,-3 1,0 1,0 2,0 1,0 1,0 1,0 8,3 14,16 16,23 10,36 -26,78 -61,104l0 0zm195 -34c-1,-9 -3,-11 -5,-11 -3,-1 -5,2 -9,8 0,1 0,1 0,1 1,0 1,0 1,0 4,-7 6,-9 8,-8 1,0 3,2 4,9 0,1 0,2 0,2 1,7 1,16 1,25 0,10 0,19 0,25 0,1 0,2 0,2 0,4 -1,8 -1,12 0,0 0,1 1,1 0,0 0,0 0,0 0,0 0,0 0,-1 0,-4 1,-8 1,-12 0,0 0,-1 0,-2 1,-6 1,-15 1,-25 0,-9 0,-18 -2,-25 0,0 0,-1 0,-1l0 0z"/>
 </g>
</svg>
