<?xml version="1.0" encoding="UTF-8"?>
<!DOCTYPE svg PUBLIC "-//W3C//DTD SVG 1.1//EN" "http://www.w3.org/Graphics/SVG/1.1/DTD/svg11.dtd">
<!-- Creator: CorelDRAW X8 -->
<svg xmlns="http://www.w3.org/2000/svg" xml:space="preserve" width="1.12399in" height="0.720524in" version="1.1" style="shape-rendering:geometricPrecision; text-rendering:geometricPrecision; image-rendering:optimizeQuality; fill-rule:evenodd; clip-rule:evenodd"
viewBox="0 0 1123 720"
 xmlns:xlink="http://www.w3.org/1999/xlink">
 <defs>
  <style type="text/css">
   <![CDATA[
    .str0 {stroke:#373435;stroke-width:2.99659}
    .fil2 {fill:#5E5E5E}
    .fil1 {fill:#B51700}
    .fil3 {fill:#EE220C}
    .fil0 {fill:#FF9300}
    .fil4 {fill:#373435;fill-rule:nonzero}
   ]]>
  </style>
 </defs>
 <g id="Layer_x0020_1">
  <metadata id="CorelCorpID_0Corel-Layer"/>
  <g id="_1701360666304">
   <path class="fil0" d="M225 203c0,0 -2,-2 -2,-2 -1,2 -1,-3 -6,-4 2,1 2,4 -1,4 -6,2 0,-7 -17,-3 9,5 3,-1 7,5 -18,0 -38,4 -57,2 0,0 0,2 0,3 2,3 3,0 -2,4l-2 2c10,-3 12,3 16,-4 3,4 -3,5 -10,7 -7,0 -10,1 -16,-2 -3,5 -1,3 -3,9l-14 1c3,6 -1,2 3,4 3,2 9,2 9,2 2,0 2,-2 1,1l-7 5c0,0 -1,1 -1,1 7,0 15,-1 24,0 5,1 2,-1 5,3 -5,3 -7,0 -12,1 1,4 0,2 7,3 0,1 0,7 -7,1l1 8c0,0 0,0 0,0l-27 2c0,5 0,2 1,3 8,4 15,0 23,2l3 7c7,-2 62,4 72,4 80,10 305,8 398,4 40,-1 82,0 122,0 9,0 10,-1 17,-3 7,-1 14,0 21,-1l-10 -3c17,-1 46,-3 58,-13 -2,2 -5,2 -8,2l7 -4c0,-12 -4,-9 -6,-17 6,-5 5,-3 10,-5l-4 -3c-8,-7 -3,-4 -3,-7 -8,-1 -11,2 -18,2 -9,0 -16,0 -24,0 -14,1 -34,-2 -47,-3 -103,-13 -162,-16 -271,-21 0,1 2,0 2,1 0,0 1,0 1,0 7,3 24,3 33,4l30 2c0,3 0,5 0,7l1 4c0,0 0,0 0,2 4,-2 8,0 14,0 7,0 11,0 14,-2 16,11 24,6 44,7 6,2 9,4 7,7 -7,3 -5,-1 -11,-3l-16 -2c-2,0 -11,-2 -14,-2 -3,4 2,4 0,6 -4,-2 -8,-2 -13,-2l-32 2c-7,0 -10,1 -16,1 -11,0 -22,-1 -34,0 -24,5 -44,-4 -61,-1 -17,4 -35,0 -52,1 -13,0 -8,-1 -16,-3 -7,-1 -24,0 -32,3l-3 -3c-1,0 -1,0 -3,0l0 -4c-10,-3 -7,-5 -20,-4 -2,4 -1,-1 0,1 0,0 2,0 0,3 -2,0 -11,2 -14,2 -5,0 -5,-2 -8,-3l8 -2 -8 -4 69 -1c13,-2 16,-9 4,-7 2,0 6,0 6,0 1,0 1,0 3,0l4 -3c-13,-6 -4,-2 -21,-2 -4,-1 -20,-2 -21,-2 10,-8 72,-2 80,-3 -8,-6 -113,-5 -131,-3l-3 0c0,0 0,0 -2,0l5 4 -13 0c0,-3 1,-3 3,-4 -20,-3 -16,0 -14,6l0 0z"/>
   <path class="fil1" d="M250 119l9 3c7,-2 12,-4 21,-4 8,-2 27,-6 34,-3 -4,3 -16,3 -21,3 -22,1 -46,8 -66,14 3,5 5,3 -12,10 -6,1 -17,8 -20,12 4,0 27,-7 42,-7 14,0 29,-4 46,-3 -9,-5 -74,13 -83,17 8,0 12,-1 20,0 7,0 12,0 20,0 7,0 10,3 17,5 20,1 41,0 60,1 12,2 25,-1 39,0 57,2 112,0 167,-1l3 -5 2 5c10,0 19,0 29,-3 5,-2 9,1 16,0 4,0 1,1 6,-3 -2,0 -5,1 -7,0 5,-6 31,-3 39,-3 0,0 0,0 2,0 0,0 0,0 0,0 1,0 2,-1 2,-1 9,-2 15,1 22,-2l38 -2c4,0 4,0 8,-2 3,-1 3,-3 8,-3 4,0 11,2 15,0l3 -1c3,-2 3,1 8,-2 0,0 -1,-1 -1,-1l17 -3c-11,-13 -6,-5 -18,-5 -2,-6 1,0 0,-3 -9,1 -47,3 -61,1l-2 6c-3,-3 -7,-4 -11,-3 -1,0 -10,-3 -14,-1 -9,2 -2,2 -3,5 -4,0 -3,-1 -3,-1 -4,-3 4,0 -6,-3 -11,-3 -24,3 -36,-1 28,-2 55,-2 83,-3 13,-2 27,-2 40,-3 6,-2 4,-2 8,-2 9,0 17,2 26,-1 6,-1 1,0 4,-3 -7,0 -15,3 -21,-1 -13,-7 10,3 -3,-2 -1,5 -3,3 -8,3l-22 -3c6,-2 33,-4 39,-4 1,3 1,2 0,3 5,-1 1,0 5,-3 2,0 4,-1 4,-1l-19 -2c2,-4 2,0 1,-4 -7,-1 -24,0 -37,2 3,-3 6,-2 10,-5l-32 2c-17,-5 -44,-2 -64,-2 -10,0 0,0 -10,3 -7,2 -6,0 -11,-1 -8,0 -15,1 -23,1 -10,-1 -14,2 -26,0 -10,0 -15,2 -25,0l-1 -8c-6,-2 2,0 -3,0l-2 -2c-5,0 -3,-1 -7,2 0,1 2,4 3,4l7 4c-7,3 -7,3 -15,2l-10 0c-7,1 4,0 -5,1 -5,0 -17,-1 -25,-1 -13,1 -74,2 -77,1l57 -6c6,-1 13,0 18,0 5,-1 2,-1 5,0 7,3 3,0 10,-3 2,6 -2,8 7,3l1 -1c2,0 2,0 2,0 8,-3 2,4 15,-2 -3,-7 -18,-2 -25,-2 -46,1 -102,4 -148,10l-55 8 0 0z"/>
   <path class="fil2" d="M488 6c0,4 3,3 3,4 -3,0 -9,0 -11,3 2,3 7,-2 11,4 -4,1 -11,4 -16,3 -5,-2 -1,-4 -10,-2 -5,2 0,0 -4,2l-6 0c-1,0 -1,0 -1,1 -7,2 -20,0 -28,2 -5,0 -7,1 -10,4 -3,-2 0,0 -2,-3l-1 -1c-4,2 -7,2 -11,4 -6,1 2,-3 -2,0 -4,3 0,-2 -4,3 25,0 50,-2 74,-3 22,0 48,-4 70,-3 -1,0 -1,0 -2,1 -6,3 -20,2 -27,3 -24,3 -63,5 -87,6 -11,0 -32,3 -39,1l-64 2c-6,1 -4,-2 -6,1 -3,0 -3,0 0,3 0,0 -1,1 0,-1l2 -2c7,4 4,2 10,2l22 0c2,0 2,0 2,0 4,0 4,1 10,1 8,-1 17,1 24,0 11,-3 15,0 25,-1l40 0c10,-2 62,-5 66,-3 -5,4 -51,0 -63,7 2,1 7,1 10,1l-12 3c10,6 36,-3 47,2 -16,2 -34,0 -50,4l-35 1c-9,0 -9,2 -16,2 -2,0 -8,0 -14,0 3,2 -3,1 6,2 0,0 4,-1 4,-1 4,0 10,1 14,1l39 -1c9,1 113,-6 133,-7 11,-1 17,-4 28,-4 -1,-5 0,0 -1,-2l-2 -3c4,-1 9,0 12,-5l5 -6c-5,-1 -11,2 -14,-1 6,0 11,1 16,-5 -2,-1 -6,-4 -6,-4 -1,-4 4,-3 -6,-4 2,-3 7,-3 -1,-6 -9,-1 -31,3 -33,-1l24 -3c5,0 6,1 7,-4 -1,-2 0,0 -1,-2 -4,-1 -10,-1 -14,-1 0,0 -4,0 -4,0l-91 4c-1,0 -1,0 -3,2l-7 0 0 0z"/>
   <path class="fil3" d="M502 392c0,2 0,2 0,2 0,1 -4,5 -8,7 -2,1 -3,3 -6,3 0,0 -3,0 -3,0 -4,0 -3,0 -4,0 11,-3 16,-7 18,-13 -4,-6 -2,-1 -5,-6 5,-7 11,-4 18,-20 2,-2 3,-5 3,-7 4,-8 -7,-29 -14,-36 -4,-6 -7,-8 -13,-10 -7,-3 -8,-3 -17,-5 -7,0 -30,7 -38,17 -4,5 -14,26 -13,32 1,9 1,26 7,34 16,22 33,28 62,17 9,-3 13,-8 13,-15l0 0z"/>
  </g>
  <path class="fil4 str0" d="M205 517c-5,0 -9,0 -14,1 -2,-26 -2,-51 -3,-69 0,-7 0,-14 0,-18 -2,-24 -2,-33 -6,-33 -1,0 -4,1 -8,14 -5,10 -9,27 -15,50 -4,17 -8,35 -12,58 -6,1 -13,1 -20,3 -19,3 -40,5 -64,11 -6,1 -11,4 -17,6 -7,1 -13,4 -18,7 -3,1 -7,3 -10,4 -3,1 -6,3 -9,4 -1,2 -3,3 -4,5l-1 1c0,0 0,1 0,1 0,0 -2,0 -2,2 0,0 0,1 0,1 0,2 0,2 0,2 -1,1 0,1 0,2 0,2 0,3 2,3 1,3 2,3 5,5 2,1 3,1 4,2 2,0 3,2 5,2 3,1 7,3 10,4 5,3 11,6 18,9 11,5 23,11 33,17 17,7 31,15 44,22 -5,26 -10,51 -15,80 0,1 0,1 0,1 0,0 0,0 0,0 0,0 2,0 2,0 4,-28 10,-55 14,-79 4,2 7,4 11,5 3,3 7,6 12,7 0,2 1,2 1,2 1,1 3,1 3,3 1,0 3,1 4,2 3,0 4,2 6,3 13,9 25,19 38,29 0,0 0,0 1,0 0,0 0,0 0,-2 -1,-10 -2,-21 -2,-31 -2,-6 -2,-11 -2,-18 -1,-24 -3,-57 -4,-94 0,-7 -1,-14 -1,-21 5,0 9,0 14,0 0,0 1,-2 1,-2 0,0 -1,-1 -1,-1l0 0 0 0zm-44 -55c14,-55 20,-63 21,-63 0,0 0,0 0,0 3,0 3,13 3,32 0,5 0,11 0,18 0,18 0,43 0,69 -10,0 -19,0 -28,2 -3,0 -6,0 -9,0 4,-23 10,-41 13,-58l0 0 0 0zm-80 143c-9,-6 -21,-11 -34,-17 -5,-3 -11,-6 -17,-9 -4,-1 -7,-2 -9,-4 -2,0 -3,-1 -5,-1 -1,-2 -4,-2 -4,-3 -3,0 -3,-2 -4,-2 0,-1 0,-1 0,-2 0,-2 0,-2 1,-3 2,-2 3,-3 3,-3 3,-3 6,-4 9,-6 2,-1 5,-3 8,-4 7,-3 13,-4 18,-7 6,-1 12,-3 17,-4 25,-7 46,-12 63,-14 7,-2 13,-2 18,-3 -5,29 -13,66 -21,107 -13,-8 -27,-17 -43,-25l0 0 0 0zm77 48c0,0 0,0 -1,0 -2,-1 -3,-3 -5,-4 -1,0 -1,-2 -3,-2 0,0 -1,-1 -2,-1 -3,-3 -6,-4 -10,-7 -5,-3 -7,-6 -12,-7 9,-43 16,-80 23,-109 3,0 6,-2 7,-2 10,0 20,-1 30,-1 0,7 1,14 1,21 2,37 5,70 7,94 0,7 2,12 3,18 0,10 2,20 3,30 -14,-10 -27,-20 -41,-30l0 0 0 0zm123 -57c0,0 0,0 0,0 -8,12 -14,16 -18,15 -3,0 -4,-3 -6,-6 -1,-3 -3,-4 -6,-4 0,0 0,0 0,0 -2,0 -5,4 -11,31 2,0 2,-2 2,-2 0,-7 1,-15 2,-25 0,-3 0,-4 0,-6 0,-1 -1,-3 -2,-3 -2,-1 -3,0 -3,2 0,3 0,4 0,5 -2,12 -2,20 -2,27 2,3 2,5 2,6 0,3 0,4 0,7 0,0 0,0 0,0 0,0 0,0 0,0 0,0 0,2 0,3 0,0 1,0 1,0 0,0 0,0 0,0 0,0 2,0 2,-1 0,0 0,-2 -2,-2 6,-37 10,-41 11,-41l0 0c2,0 3,1 5,3 1,3 3,7 5,7 6,1 13,-3 22,-14 0,0 0,-2 -2,-2l0 0 0 0zm119 -55c0,0 0,-1 -11,-3 0,0 0,0 0,0 -4,0 -9,-1 -16,-1 -12,0 -29,-2 -49,0 -7,0 -13,0 -20,1 1,-10 3,-20 4,-29 2,-9 3,-17 4,-25 3,-9 3,-14 2,-14 -2,0 -4,3 -6,13 -3,9 -4,17 -6,26 -1,9 -2,19 -4,29 -8,2 -17,3 -22,5 -8,0 -12,1 -16,2 0,0 0,0 0,0 -4,0 -9,0 -11,2 -2,0 -2,0 -2,0 0,0 2,0 2,0 0,0 0,0 0,0 2,0 7,0 11,-2 0,0 0,0 0,0 4,0 8,0 16,0 5,-1 14,-1 22,-1 -1,10 -3,20 -3,30 0,11 0,20 0,29 0,2 0,5 0,8 0,0 0,1 0,2 0,2 0,2 0,3 0,4 0,9 2,13 0,8 1,17 1,24 2,14 4,27 6,41 0,0 0,0 1,0 0,0 0,0 0,0 0,0 0,0 0,0 -1,-14 -4,-28 -5,-41 0,-7 0,-16 0,-24 0,-4 0,-9 -2,-13 0,-1 0,-1 0,-3 0,-1 0,-2 2,-4 0,-1 0,-4 0,-6 0,-9 0,-18 0,-28 1,-10 2,-21 4,-31 6,-1 13,-1 20,-1 20,-2 37,-2 49,-3 7,0 12,0 16,0 0,0 0,0 0,0 7,0 11,1 11,1 0,0 -1,2 -14,4 0,0 0,0 0,0 0,0 0,0 1,0 12,-1 13,-2 13,-4l0 0 0 0zm265 -143c0,0 0,0 -1,0 -3,0 -5,1 -7,3 -6,1 -10,6 -15,11 -10,12 -17,27 -22,44 -7,17 -12,37 -14,58 -2,20 -2,40 1,57 -10,8 -18,15 -27,23 0,-17 -1,-33 -3,-47 -1,-9 -3,-16 -4,-23 -1,-7 -4,-13 -6,-18 -2,-10 -5,-17 -8,-24 -3,-9 -6,-17 -9,-26 0,0 -1,0 -1,0 0,0 -1,0 0,2 3,7 6,15 8,25 2,6 5,14 6,23 2,7 3,12 4,20 2,7 3,14 3,22 2,16 3,33 2,50 0,1 0,1 0,3 -10,7 -20,14 -29,19 -38,29 -66,50 -62,73 3,12 14,24 25,25 0,0 2,0 2,0 8,0 15,-4 23,-11 4,-4 9,-11 15,-20 4,-4 7,-10 11,-16 2,-4 3,-7 5,-9 1,-3 3,-5 3,-6 1,-2 1,-4 2,-6 3,-7 6,-15 7,-24 3,-8 5,-18 5,-27 0,-1 0,-3 1,-3 9,-7 17,-15 27,-22 0,0 0,0 0,0 1,18 4,34 7,46 3,12 6,22 7,29 3,10 6,20 9,30 0,0 1,0 1,0 0,0 0,0 0,-2 -3,-8 -6,-20 -8,-30 -2,-7 -3,-15 -5,-27 -1,-14 -4,-29 -5,-48 0,-1 0,-3 0,-4 22,-21 44,-45 61,-75 21,-34 26,-60 17,-78 -5,-8 -15,-17 -26,-17l0 0 0 0zm-157 319c0,0 0,0 -2,0 -9,-2 -21,-13 -24,-24 -4,-23 24,-43 63,-71 8,-6 17,-13 27,-20 -3,17 -6,33 -10,45 -2,3 -2,5 -3,6 0,1 -2,4 -2,6 -1,3 -4,7 -5,10 -3,5 -6,11 -9,17 -4,8 -10,15 -14,19 -7,8 -14,12 -21,12l0 0 0 0zm164 -224c-17,28 -38,52 -59,72 0,-15 0,-32 1,-51 1,-20 6,-39 11,-56 3,-9 6,-16 9,-23 4,-9 7,-14 11,-20 3,-6 7,-10 13,-13 1,-1 4,-1 6,-3 1,0 1,0 2,0 9,0 19,9 23,17 10,17 4,43 -17,77l0 0 0 0zm6 91c-3,-2 -4,0 -7,1 -2,0 -3,1 -5,1 -1,3 -4,5 -5,9 -3,3 -4,7 -4,11 -2,5 0,9 0,12 1,4 2,7 4,8 1,2 3,3 4,3 1,3 4,4 6,4 0,0 1,0 1,0 7,0 14,-13 16,-22 1,-12 -3,-26 -10,-27l0 0zm8 25c-1,11 -8,23 -15,23 -2,0 -3,-2 -5,-3 -1,-1 -1,-3 -2,-4 0,-2 -2,-5 -2,-9 -1,-3 -1,-5 0,-10 0,-3 2,-7 3,-10 1,-2 3,-5 4,-7 0,-1 2,-3 2,-3 3,-1 4,-1 5,-1 0,0 2,0 2,0 7,1 10,14 8,24l0 0zm139 -68c0,0 0,-1 -11,-3 0,0 0,0 0,0 -4,0 -9,-1 -16,-1 -13,0 -30,-2 -49,0 -7,0 -13,0 -20,1 1,-10 3,-20 4,-29 1,-9 3,-17 4,-25 3,-9 2,-14 0,-14 0,0 -3,3 -5,13 -2,9 -3,17 -5,26 -1,9 -2,19 -4,29 -8,2 -17,3 -24,5 -6,0 -10,1 -14,2 0,0 0,0 0,0 -4,0 -9,0 -11,2 -2,0 -2,0 -2,0 0,0 0,0 2,0 0,0 0,0 0,0 2,0 7,0 11,-2 0,0 0,0 0,0 4,0 8,0 15,0 6,-1 15,-1 23,-1 -1,10 -3,20 -3,30 0,11 0,20 0,29 0,2 0,5 0,8 0,0 0,1 0,2 0,2 0,2 0,3 0,4 0,9 2,13 0,8 1,17 1,24 2,14 3,27 6,41 0,0 0,0 1,0 0,0 0,0 0,0 0,0 0,0 0,0 -1,-14 -4,-28 -5,-41 0,-7 0,-16 0,-24 -2,-4 -2,-9 -2,-13 0,-1 0,-1 0,-3 0,-1 0,-2 0,-4 0,-1 0,-4 0,-6 2,-9 2,-18 2,-28 1,-10 2,-21 4,-31 5,-1 13,-1 20,-1 19,-2 36,-2 49,-3 7,0 12,0 16,0 0,0 0,0 0,0 7,0 11,1 11,1 0,0 -1,2 -14,4 0,0 0,0 0,0 0,0 0,0 0,0 13,-1 14,-2 14,-4l0 0 0 0zm128 55c0,0 -2,0 -2,0 -30,47 -64,74 -85,66 -7,-3 -13,-9 -15,-17 0,0 0,0 0,0 -2,-5 -3,-9 -5,-13 -1,-6 -1,-12 -2,-17 0,-4 0,-7 -2,-12 0,0 0,0 0,-1 50,-37 102,-98 88,-149 -3,-8 -7,-20 -14,-27 0,0 0,-1 0,-1 -2,-1 -4,-3 -7,-4 0,-2 -2,-2 -3,-2 -2,-1 -4,-1 -6,-1 -3,1 -5,3 -8,4 -3,2 -6,4 -9,6 -3,3 -5,5 -8,8 -5,7 -9,14 -13,22 -7,15 -14,34 -18,53 -5,20 -8,40 -8,57 0,9 0,17 2,26 0,2 0,7 1,9 -29,22 -51,30 -55,26 -1,0 -4,-3 -6,-7 0,0 0,0 0,0 -1,-3 -1,-4 -1,-9 0,0 0,-1 0,-2 10,-5 20,-13 18,-20 0,-6 -4,-10 -8,-10 0,0 0,0 0,0 -2,0 -4,1 -6,4 -1,0 -1,1 -3,1 -1,2 -2,5 -4,8 -1,2 -3,7 -3,11 0,3 0,7 2,10 0,3 1,5 3,8 1,2 2,3 4,5 0,0 0,0 0,0 1,1 1,2 3,2 1,2 2,2 4,2 10,0 30,-10 52,-27 0,3 2,7 2,10 0,3 1,5 1,8 4,17 10,36 24,40 3,1 4,1 9,1 21,0 51,-24 78,-66 0,0 0,-2 0,-2l0 0 0 0zm-176 9c0,-3 1,-7 1,-9 2,-2 2,-5 3,-8 0,-2 2,-3 2,-3 1,-1 2,-3 4,-3 0,0 0,0 0,0 3,0 7,4 7,9 0,5 -7,12 -17,18 0,-1 0,-3 0,-4l0 0 0 0zm65 -4c0,-3 0,-6 0,-7 -1,-9 -1,-17 0,-26 0,-17 3,-35 7,-55 4,-19 10,-37 17,-53 4,-8 9,-15 13,-21 1,-3 4,-6 7,-8 1,-3 4,-5 7,-6 3,-3 6,-4 9,-4 1,0 1,0 2,0 2,0 2,0 2,0 11,4 20,22 23,32 14,51 -37,111 -87,148l0 0 0 0zm276 -49c-1,-12 -4,-15 -7,-15 -4,-2 -7,3 -12,11 0,2 0,2 0,2 1,0 1,0 1,0 6,-10 8,-13 11,-12 2,0 5,3 6,13 0,1 0,3 0,3 1,10 1,23 1,35 0,14 0,27 0,36 0,1 0,3 0,3 0,5 -1,11 -1,17 0,0 0,1 1,1 0,0 0,0 0,0 0,0 0,0 0,-1 0,-6 2,-12 2,-17 0,0 0,-2 0,-3 1,-9 1,-22 1,-36 0,-12 0,-25 -3,-35 0,0 0,-2 0,-2l0 0 0 0z"/>
 </g>
</svg>
