<?xml version="1.0" encoding="UTF-8"?>
<!DOCTYPE svg PUBLIC "-//W3C//DTD SVG 1.1//EN" "http://www.w3.org/Graphics/SVG/1.1/DTD/svg11.dtd">
<!-- Creator: CorelDRAW X8 -->
<svg xmlns="http://www.w3.org/2000/svg" xml:space="preserve" width="2.07599in" height="0.391752in" version="1.1" style="shape-rendering:geometricPrecision; text-rendering:geometricPrecision; image-rendering:optimizeQuality; fill-rule:evenodd; clip-rule:evenodd"
viewBox="0 0 5376 1014"
 xmlns:xlink="http://www.w3.org/1999/xlink">
 <defs>
  <style type="text/css">
   <![CDATA[
    .str0 {stroke:#373435;stroke-width:7.76861}
    .fil2 {fill:#5E5E5E}
    .fil1 {fill:#B51700}
    .fil3 {fill:#EE220C}
    .fil0 {fill:#FF9300}
    .fil4 {fill:#373435;fill-rule:nonzero}
   ]]>
  </style>
 </defs>
 <g id="Layer_x0020_1">
  <metadata id="CorelCorpID_0Corel-Layer"/>
  <g id="_1701360666304">
   <path class="fil0" d="M272 499c0,0 -4,-4 -4,-4 -3,4 -3,-7 -14,-10 4,3 4,10 -3,10 -14,4 0,-17 -42,-7 21,11 7,-3 18,11 -46,0 -95,10 -140,6 0,0 0,4 0,7 4,7 7,0 -7,11l-3 3c24,-7 28,7 38,-10 7,10 -7,14 -24,17 -18,0 -25,4 -39,-3 -7,10 -3,7 -7,21l-35 3c7,14 -3,4 7,11 7,3 21,3 21,3 7,0 7,-3 4,4l-18 10c0,0 -3,4 -3,4 17,0 38,-4 59,0 14,3 7,-4 14,7 -14,7 -17,0 -31,3 3,11 0,4 17,7 0,4 0,18 -17,4l3 17c0,0 0,0 0,0l-66 7c0,10 0,3 3,7 18,10 35,0 56,3l7 18c18,-4 154,10 178,10 195,25 750,21 980,11 97,-4 202,0 299,0 21,0 25,-4 42,-7 18,-4 35,0 53,-4l-25 -7c42,-3 112,-7 143,-31 -7,3 -14,3 -21,3l18 -10c0,-28 -11,-21 -14,-42 14,-10 10,-7 24,-10l-10 -7c-21,-18 -7,-11 -7,-18 -21,-3 -28,4 -46,4 -21,0 -38,0 -59,0 -35,3 -84,-4 -115,-7 -255,-32 -397,-39 -666,-52 0,3 4,0 4,3 0,0 3,0 3,0 18,7 59,7 80,10l73 4c0,7 0,14 0,17l4 11c0,0 0,0 0,3 10,-3 21,0 35,0 17,0 28,0 35,-3 38,28 59,14 108,17 14,4 21,11 17,18 -17,7 -14,-4 -28,-7l-38 -7c-7,0 -28,-4 -35,-4 -7,11 4,11 0,14 -10,-3 -21,-3 -31,-3l-80 3c-18,0 -25,4 -39,4 -28,0 -56,-4 -83,0 -60,10 -109,-11 -150,-4 -42,11 -88,0 -129,4 -32,0 -21,-4 -39,-7 -17,-4 -59,0 -80,7l-7 -7c-3,0 -3,0 -7,0l0 -11c-24,-7 -17,-14 -49,-10 -7,10 -3,-4 0,3 0,0 4,0 0,7 -7,0 -28,4 -34,4 -14,0 -14,-4 -21,-7l21 -4 -21 -10 170 -4c32,-3 39,-21 11,-17 3,0 14,0 14,0 3,0 3,0 7,0l10 -7c-31,-14 -10,-4 -52,-4 -11,-3 -49,-7 -52,-7 24,-17 177,-3 198,-6 -21,-14 -279,-11 -324,-7l-7 0c0,0 0,0 -3,0l10 10 -31 0c0,-7 3,-7 7,-10 -49,-7 -39,0 -35,13l0 1z"/>
   <path class="fil1" d="M335 293l21 7c17,-4 31,-11 52,-11 21,-3 66,-14 84,-7 -11,7 -39,7 -53,7 -52,4 -111,21 -160,35 7,14 10,7 -31,25 -14,3 -42,21 -49,31 10,0 66,-17 104,-17 35,0 70,-11 112,-7 -21,-14 -181,31 -202,41 17,0 28,-3 48,0 18,0 28,0 49,0 18,0 25,7 42,11 49,3 101,0 146,3 32,4 63,-3 98,0 140,4 276,0 411,-3l7 -11 4 11c24,0 49,0 73,-7 11,-4 21,3 38,0 11,0 4,3 14,-7 -3,0 -10,3 -17,0 14,-14 77,-7 98,-7 0,0 0,0 3,0 0,0 0,0 0,0 4,0 7,-4 7,-4 21,-3 35,4 52,-3l94 -7c11,0 11,0 21,-3 7,-4 7,-7 18,-7 10,0 28,3 38,0l7 -4c7,-3 7,4 21,-3 0,0 -3,-4 -3,-4l41 -7c-27,-31 -14,-14 -45,-14 -3,-14 4,0 0,-7 -21,4 -115,7 -150,4l-3 14c-7,-7 -18,-11 -28,-7 -4,0 -25,-7 -35,-4 -21,7 -4,7 -7,14 -10,0 -7,-3 -7,-3 -10,-7 10,0 -14,-7 -28,-7 -59,7 -91,-4 70,-3 136,-3 206,-7 31,-3 66,-3 98,-7 14,-3 10,-3 21,-3 21,0 41,3 62,-4 14,-3 4,0 11,-7 -18,0 -39,7 -52,-3 -32,-18 24,7 -7,-4 -4,11 -7,7 -21,7l-53 -7c14,-7 81,-10 94,-10 4,7 4,3 0,7 14,-4 4,0 14,-7 4,0 11,-4 11,-4l-49 -3c7,-11 7,0 4,-11 -18,-3 -60,0 -91,4 7,-7 14,-4 24,-11l-80 4c-42,-10 -108,-4 -157,-4 -24,0 0,0 -24,7 -18,4 -14,0 -28,-3 -17,0 -35,3 -56,3 -24,-3 -35,4 -63,0 -24,0 -38,4 -62,0l-4 -20c-14,-4 7,0 -7,0l-3 -4c-14,0 -7,-3 -18,4 0,3 4,10 7,10l18 10c-18,7 -18,7 -39,4l-24 0c-17,3 10,0 -10,3 -14,0 -42,-3 -63,-3 -32,3 -181,7 -188,3l139 -14c14,-3 31,0 45,0 11,-3 4,-3 11,0 17,7 7,0 24,-7 7,14 -3,18 18,7l3 -3c4,0 4,0 4,0 20,-7 7,10 38,-3 -7,-18 -45,-7 -63,-7 -111,3 -251,10 -362,24l-136 21 0 0z"/>
   <path class="fil2" d="M920 14c0,10 7,7 7,10 -7,0 -21,0 -28,7 7,7 18,-3 28,11 -10,3 -28,10 -38,7 -14,-4 -4,-11 -24,-4 -14,4 0,0 -11,4l-14 0c-3,0 -3,0 -3,3 -18,4 -49,0 -70,4 -11,0 -18,3 -24,10 -7,-3 0,0 -4,-7l-3 -3c-11,7 -18,7 -28,10 -14,4 7,-7 -4,0 -10,7 0,-3 -10,7 62,0 122,-3 181,-7 56,0 119,-10 174,-7 -3,0 -3,0 -7,4 -14,7 -48,3 -66,7 -59,7 -153,10 -213,14 -27,0 -80,7 -97,3l-157 4c-14,3 -10,-4 -14,3 -7,0 -7,0 0,7 0,0 -3,4 0,-3l4 -4c17,11 10,4 24,4l56 0c3,0 3,0 3,0 11,0 11,3 25,3 20,-3 41,4 59,0 28,-7 38,0 63,-3l97 0c25,-4 154,-11 164,-7 -14,10 -125,0 -157,17 7,4 18,4 25,4l-28 7c24,13 87,-7 115,3 -39,7 -84,0 -122,10l-87 4c-21,0 -21,3 -39,3 -7,0 -21,0 -35,0 7,7 -7,4 14,7 0,0 11,-3 11,-3 10,0 24,3 35,3l94 -3c24,3 279,-14 327,-18 28,-3 42,-10 70,-10 -3,-10 0,0 -3,-3l-4 -7c11,-4 21,0 28,-14l14 -14c-14,-4 -28,3 -35,-4 14,0 28,4 39,-10 -4,-4 -14,-11 -14,-11 -4,-10 10,-7 -14,-10 3,-7 17,-7 -4,-14 -21,-4 -77,7 -80,-4l59 -7c11,0 14,4 18,-10 -4,-4 0,0 -4,-4 -10,-3 -24,-3 -35,-3 0,0 -10,0 -10,0l-223 10c-4,0 -4,0 -7,4l-18 0 0 0z"/>
   <path class="fil3" d="M955 966c0,3 0,3 0,3 0,4 -10,14 -21,18 -3,3 -7,7 -14,7 0,0 -7,0 -7,0 -10,0 -7,0 -10,0 28,-7 38,-18 45,-32 -10,-14 -7,-3 -14,-14 14,-17 28,-10 46,-49 3,-7 7,-14 7,-17 10,-21 -18,-73 -35,-91 -11,-14 -18,-17 -32,-24 -17,-7 -21,-7 -42,-11 -17,0 -73,18 -94,42 -10,11 -34,63 -31,77 3,24 3,66 17,84 39,55 81,69 154,42 21,-7 31,-18 31,-35l0 0z"/>
  </g>
  <path class="fil4 str0" d="M2766 390c-12,0 -24,0 -40,4 -4,-76 -4,-144 -8,-197 0,-20 0,-40 0,-52 -4,-69 -4,-93 -16,-93 -4,0 -12,4 -24,40 -12,29 -24,77 -40,141 -12,49 -25,101 -37,165 -16,5 -36,5 -56,9 -52,8 -113,16 -181,32 -16,4 -32,12 -49,16 -20,4 -36,12 -52,20 -8,4 -20,8 -28,12 -8,4 -16,8 -24,12 -4,4 -8,8 -12,12l-4 4c0,0 0,4 0,4 0,0 -4,0 -4,4 0,0 0,4 0,4 0,4 0,4 0,4 -4,4 0,4 0,8 0,4 0,8 4,8 4,9 8,9 16,13 4,4 8,4 12,8 4,0 8,4 12,4 8,4 20,8 28,12 16,8 32,16 52,24 33,16 65,32 93,48 48,20 89,45 125,65 -12,72 -28,145 -40,225 0,4 0,4 0,4 0,0 0,0 0,0 0,0 4,0 4,0 12,-80 28,-157 40,-225 12,8 20,12 32,16 8,8 20,16 32,20 0,4 4,4 4,4 4,4 8,4 8,8 4,0 9,4 13,8 8,0 12,4 16,8 36,24 72,52 108,81 0,0 0,0 4,0 0,0 0,0 0,-4 -4,-29 -8,-61 -8,-89 -4,-16 -4,-32 -4,-52 -4,-69 -8,-161 -12,-266 0,-20 -4,-40 -4,-61 16,0 28,0 40,0 0,0 5,-4 5,-4 0,0 -5,-4 -5,-4l0 0 0 0zm-124 -157c40,-157 56,-177 60,-177 0,0 0,0 0,0 8,0 8,36 8,89 0,16 0,32 0,52 0,53 0,121 0,197 -28,0 -52,0 -80,5 -9,0 -17,0 -25,0 12,-65 29,-117 37,-166l0 0 0 0zm-226 407c-28,-16 -60,-32 -97,-48 -16,-8 -32,-16 -48,-24 -12,-4 -20,-8 -28,-12 -4,0 -8,-4 -12,-4 -4,-4 -12,-4 -12,-9 -8,0 -8,-4 -12,-4 0,-4 0,-4 0,-8 0,-4 0,-4 4,-8 4,-4 8,-8 8,-8 8,-8 16,-12 24,-16 8,-4 16,-8 24,-12 20,-8 36,-12 52,-20 17,-4 33,-8 49,-12 68,-20 129,-32 177,-40 20,-4 36,-4 52,-8 -16,84 -36,189 -60,306 -36,-25 -77,-49 -121,-73l0 0 0 0zm218 137c0,0 0,0 -4,0 -4,-4 -8,-8 -13,-12 -4,0 -4,-4 -8,-4 0,0 -4,-4 -8,-4 -8,-8 -16,-12 -28,-20 -12,-8 -20,-16 -32,-20 24,-121 44,-226 64,-310 8,0 17,-4 21,-4 28,0 56,-4 84,-4 0,20 4,40 4,60 4,105 12,197 20,266 0,20 4,36 8,52 0,28 4,56 8,85 -40,-29 -76,-57 -116,-85l0 0 0 0zm350 -161c0,0 0,0 0,0 -24,32 -40,44 -52,40 -8,0 -12,-8 -17,-16 -4,-8 -8,-12 -16,-12 0,0 0,0 0,0 -8,0 -16,12 -32,89 4,0 4,-4 4,-4 0,-21 4,-45 8,-73 0,-8 0,-12 0,-16 0,-4 -4,-8 -8,-8 -4,-4 -8,0 -8,4 0,8 0,12 0,16 -4,32 -4,56 -4,77 4,8 4,12 4,16 0,8 0,12 0,20 0,0 0,0 0,0 0,0 0,0 0,0 0,0 0,4 0,8 0,0 4,0 4,0 0,0 0,0 0,0 0,0 4,0 4,-4 0,0 0,-4 -4,-4 16,-105 28,-117 32,-117l0 0c4,0 8,4 12,8 4,8 8,20 17,20 16,4 36,-8 60,-40 0,0 0,-4 -4,-4l0 0 0 0zm338 -157c0,0 0,-4 -32,-8 0,0 0,0 0,0 -12,0 -24,-4 -44,-4 -37,0 -85,-4 -141,0 -20,0 -37,0 -57,4 4,-28 8,-57 12,-85 4,-24 8,-48 13,-68 8,-28 8,-40 4,-40 -4,0 -13,8 -17,36 -8,24 -12,48 -16,72 -4,28 -8,57 -12,85 -24,4 -48,8 -64,12 -20,0 -32,4 -44,8 0,0 0,0 0,0 -13,0 -25,0 -33,4 -4,0 -4,0 -4,0 0,0 4,0 4,0 0,0 0,0 0,0 8,0 20,0 33,-4 0,0 0,0 0,0 12,0 24,0 44,0 16,-4 40,-4 64,-4 -4,28 -8,56 -8,85 0,32 0,56 0,84 0,4 0,12 0,20 0,0 0,4 0,8 0,4 0,4 0,8 0,12 0,25 4,37 0,24 4,48 4,68 4,40 12,77 16,117 0,0 0,0 4,0 0,0 0,0 0,0 0,0 0,0 0,0 -4,-40 -12,-81 -16,-117 0,-20 0,-44 0,-68 0,-12 0,-25 -4,-37 0,-4 0,-4 0,-8 0,-4 0,-8 4,-12 0,-4 0,-12 0,-16 0,-28 0,-52 0,-80 4,-29 8,-61 12,-89 16,-4 37,-4 57,-4 56,-4 104,-4 141,-8 20,0 32,0 44,0 0,0 0,0 0,0 20,0 32,4 32,4 0,0 -4,4 -40,12 0,0 0,0 0,0 0,0 0,0 4,0 32,-4 36,-8 36,-12l0 0 0 0zm753 -407c0,0 0,0 -4,0 -8,0 -12,4 -20,8 -16,4 -28,16 -40,32 -28,33 -48,77 -65,125 -20,49 -32,105 -40,165 -4,57 -4,113 4,161 -28,25 -52,45 -76,65 0,-48 -4,-93 -8,-133 -4,-24 -8,-44 -12,-64 -5,-21 -13,-37 -17,-53 -8,-28 -16,-48 -24,-68 -8,-24 -16,-49 -24,-73 0,0 -4,0 -4,0 0,0 -4,0 0,4 8,20 16,45 24,73 4,16 12,40 16,64 4,20 8,36 12,57 4,20 8,40 8,64 4,44 9,93 4,141 0,4 0,4 0,8 -28,20 -56,40 -80,56 -109,81 -189,141 -177,206 8,36 40,68 72,72 0,0 4,0 4,0 24,0 45,-12 65,-32 12,-12 28,-32 44,-56 12,-12 20,-28 32,-45 4,-12 8,-20 12,-28 4,-8 8,-12 8,-16 4,-4 4,-12 8,-16 8,-20 17,-44 21,-68 8,-25 12,-53 12,-77 0,-4 0,-8 4,-8 24,-20 48,-44 76,-64 0,0 0,0 0,0 4,52 12,96 20,132 8,33 16,61 20,81 8,28 17,56 25,85 0,0 4,0 4,0 0,0 0,0 0,-4 -8,-25 -17,-57 -25,-85 -4,-20 -8,-44 -12,-77 -4,-40 -12,-84 -16,-136 0,-5 0,-9 0,-13 65,-60 125,-128 173,-213 61,-97 77,-169 49,-221 -12,-25 -41,-49 -73,-49l0 0 0 0zm-447 906c0,0 0,0 -4,0 -28,-4 -60,-36 -68,-68 -12,-65 68,-121 177,-202 24,-16 48,-36 76,-56 -8,48 -16,93 -28,129 -4,8 -4,12 -8,16 0,4 -4,12 -4,16 -4,8 -12,20 -16,28 -8,16 -16,33 -24,49 -12,24 -28,44 -40,56 -20,20 -41,32 -61,32l0 0 0 0zm467 -636c-48,81 -108,149 -169,205 0,-44 0,-92 4,-145 4,-56 16,-112 33,-161 8,-24 16,-44 24,-64 12,-24 20,-40 32,-57 8,-16 20,-28 36,-36 4,-4 12,-4 16,-8 4,0 4,0 8,0 24,0 53,24 65,49 28,48 12,120 -49,217l0 0 0 0zm17 258c-9,-4 -13,0 -21,4 -4,0 -8,4 -12,4 -4,8 -12,12 -16,24 -8,8 -12,20 -12,32 -4,12 0,24 0,32 4,12 8,21 12,25 4,4 8,8 12,8 4,8 12,12 16,12 0,0 4,0 4,0 21,0 41,-37 45,-65 4,-32 -8,-72 -28,-76l0 0zm24 72c-4,32 -24,65 -45,65 -4,0 -8,-4 -12,-8 -4,-4 -4,-8 -8,-12 0,-5 -4,-13 -4,-25 -4,-8 -4,-16 0,-28 0,-8 4,-20 8,-28 4,-8 8,-16 12,-20 0,-4 4,-8 4,-8 8,-4 12,-4 16,-4 0,0 5,0 5,0 20,4 28,40 24,68l0 0zm394 -193c0,0 0,-4 -32,-8 0,0 0,0 0,0 -12,0 -24,-4 -44,-4 -36,0 -85,-4 -141,0 -20,0 -36,0 -57,4 5,-28 9,-57 13,-85 4,-24 8,-48 12,-68 8,-28 4,-40 0,-40 0,0 -8,8 -16,36 -4,24 -9,48 -13,72 -4,28 -8,57 -12,85 -24,4 -48,8 -68,12 -16,0 -28,4 -40,8 0,0 0,0 0,0 -12,0 -25,0 -33,4 -4,0 -4,0 -4,0 0,0 0,0 4,0 0,0 0,0 0,0 8,0 21,0 33,-4 0,0 0,0 0,0 12,0 24,0 44,0 16,-4 40,-4 64,-4 -4,28 -8,56 -8,85 0,32 0,56 0,84 0,4 0,12 0,20 0,0 0,4 0,8 0,4 0,4 0,8 0,12 0,25 4,37 0,24 4,48 4,68 4,40 8,77 16,117 0,0 0,0 5,0 0,0 0,0 0,0 0,0 0,0 0,0 -5,-40 -13,-81 -17,-117 0,-20 0,-44 0,-68 -4,-12 -4,-25 -4,-37 0,-4 0,-4 0,-8 0,-4 0,-8 0,-12 0,-4 0,-12 0,-16 4,-28 4,-52 4,-80 4,-29 8,-61 12,-89 17,-4 37,-4 57,-4 56,-4 105,-4 141,-8 20,0 32,0 44,0 0,0 0,0 0,0 20,0 32,4 32,4 0,0 -4,4 -40,12 0,0 0,0 0,0 0,0 0,0 0,0 36,-4 40,-8 40,-12l0 0 0 0zm363 157c0,0 -4,0 -4,0 -85,133 -181,209 -242,185 -20,-8 -36,-24 -44,-48 0,0 0,0 0,0 -4,-12 -8,-24 -12,-36 -4,-16 -4,-33 -8,-49 0,-12 0,-20 -4,-32 0,0 0,0 0,-4 141,-105 290,-278 249,-423 -8,-24 -20,-56 -40,-76 0,0 0,-4 0,-4 -4,-4 -12,-8 -20,-12 0,-4 -4,-4 -8,-4 -4,-4 -12,-4 -16,-4 -8,4 -16,8 -24,12 -8,4 -17,12 -25,16 -8,8 -16,16 -24,24 -12,20 -24,40 -36,60 -20,45 -40,97 -52,153 -12,57 -20,113 -20,161 0,25 0,49 4,73 0,8 0,20 4,28 -85,61 -145,85 -157,73 -4,0 -13,-8 -17,-21 0,0 0,0 0,0 -4,-8 -4,-12 -4,-24 0,0 0,-4 0,-8 29,-12 57,-36 53,-56 0,-16 -12,-28 -24,-28 0,0 0,0 0,0 -4,0 -12,4 -17,12 -4,0 -4,4 -8,4 -4,4 -8,12 -12,20 -4,8 -8,20 -8,32 0,8 0,20 4,28 0,8 4,16 8,24 4,5 8,9 12,13 0,0 0,0 0,0 4,4 4,8 9,8 4,4 8,4 12,4 28,0 84,-29 149,-77 0,8 4,20 4,28 0,8 4,16 4,24 12,49 28,101 68,113 8,4 12,4 24,4 61,0 145,-68 222,-189 0,0 0,-4 0,-4l0 0 0 0zm-500 24c0,-8 4,-20 4,-24 4,-8 4,-16 8,-24 0,-4 5,-8 5,-8 4,-4 8,-8 12,-8 0,0 0,0 0,0 8,0 20,12 20,24 0,16 -20,36 -49,52 0,-4 0,-8 0,-12l0 0 0 0zm186 -12c0,-8 0,-16 0,-20 -4,-24 -4,-48 0,-73 0,-48 8,-100 20,-157 12,-52 28,-104 48,-149 12,-24 24,-44 36,-60 4,-8 12,-16 20,-24 5,-8 13,-12 21,-16 8,-8 16,-12 24,-12 4,0 4,0 8,0 4,0 4,0 4,0 32,12 56,64 64,92 41,145 -104,314 -245,419l0 0 0 0zm785 -137c-4,-36 -12,-44 -20,-44 -12,-4 -20,8 -36,32 0,4 0,4 0,4 4,0 4,0 4,0 16,-28 24,-36 32,-32 4,0 12,8 16,36 0,4 0,8 0,8 4,28 4,65 4,101 0,40 0,76 0,101 0,4 0,8 0,8 0,16 -4,32 -4,48 0,0 0,4 4,4 0,0 0,0 0,0 0,0 0,0 0,-4 0,-16 4,-32 4,-48 0,0 0,-4 0,-8 4,-25 4,-61 4,-101 0,-36 0,-73 -8,-101 0,0 0,-4 0,-4l0 0 0 0z"/>
 </g>
</svg>
