<?xml version="1.0" encoding="UTF-8"?>
<!DOCTYPE svg PUBLIC "-//W3C//DTD SVG 1.1//EN" "http://www.w3.org/Graphics/SVG/1.1/DTD/svg11.dtd">
<!-- Creator: CorelDRAW X8 -->
<svg xmlns="http://www.w3.org/2000/svg" xml:space="preserve" width="8.5in" height="11in" version="1.1" style="shape-rendering:geometricPrecision; text-rendering:geometricPrecision; image-rendering:optimizeQuality; fill-rule:evenodd; clip-rule:evenodd"
viewBox="0 0 8500 11000"
 xmlns:xlink="http://www.w3.org/1999/xlink">
 <defs>
  <style type="text/css">
   <![CDATA[
    .fil2 {fill:none}
    .fil0 {fill:#D2AE6D}
    .fil1 {fill:#ED3237}
    .fil3 {fill:#D2AE6D;fill-rule:nonzero}
   ]]>
  </style>
    <clipPath id="id0">
     <path d="M3347 5725l217 0 -342 -460 -109 146 111 148 60 17 -47 0 110 149 0 0 0 0z"/>
    </clipPath>
 </defs>
 <g id="Layer_x0020_1">
  <metadata id="CorelCorpID_0Corel-Layer"/>
  <g id="_347195562896">
   <polygon class="fil0" points="3060,5487 2884,5725 3237,5727 3174,5642 3103,5622 3159,5622 "/>
   <g>
   </g>
   <g>
   </g>
   <g>
   </g>
   <g style="clip-path:url(#id0)">
    <g id="_235714651696">
     <rect class="fil1" transform="matrix(0.488783 -0 0.583021 0.782407 2332.07 4571.55)" width="31.2244" height="2216.65"/>
     <rect class="fil1" transform="matrix(0.488783 -0 0.583021 0.782407 2366.09 4571.55)" width="31.2244" height="2216.65"/>
     <rect class="fil1" transform="matrix(0.488783 -0 0.583021 0.782407 2400.1 4571.55)" width="31.2244" height="2216.65"/>
     <rect class="fil1" transform="matrix(0.488783 -0 0.583021 0.782407 2434.12 4571.55)" width="31.2244" height="2216.65"/>
     <rect class="fil1" transform="matrix(0.488783 -0 0.583021 0.782407 2468.14 4571.55)" width="31.2244" height="2216.65"/>
     <rect class="fil1" transform="matrix(0.488783 -0 0.583021 0.782407 2502.15 4571.55)" width="31.2244" height="2216.65"/>
     <rect class="fil1" transform="matrix(0.488783 -0 0.583021 0.782407 2536.17 4571.55)" width="31.2244" height="2216.65"/>
     <rect class="fil1" transform="matrix(0.488783 -0 0.583021 0.782407 2570.19 4571.55)" width="31.2244" height="2216.65"/>
     <rect class="fil1" transform="matrix(0.488783 -0 0.583021 0.782407 2604.2 4571.55)" width="31.2244" height="2216.65"/>
     <rect class="fil1" transform="matrix(0.488783 -0 0.583021 0.782407 2638.22 4571.55)" width="31.2244" height="2216.65"/>
     <rect class="fil1" transform="matrix(0.488783 -0 0.583021 0.782407 2672.24 4571.55)" width="31.2244" height="2216.65"/>
     <rect class="fil1" transform="matrix(0.488783 -0 0.583021 0.782407 2706.26 4571.55)" width="31.2244" height="2216.65"/>
     <rect class="fil1" transform="matrix(0.488783 -0 0.583021 0.782407 2740.27 4571.55)" width="31.2244" height="2216.65"/>
     <rect class="fil1" transform="matrix(0.488783 -0 0.583021 0.782407 2774.29 4571.55)" width="31.2244" height="2216.65"/>
     <rect class="fil1" transform="matrix(0.488783 -0 0.583021 0.782407 2808.31 4571.55)" width="31.2244" height="2216.65"/>
     <rect class="fil1" transform="matrix(0.488783 -0 0.583021 0.782407 2842.32 4571.55)" width="31.2244" height="2216.65"/>
     <rect class="fil1" transform="matrix(0.488783 -0 0.583021 0.782407 2876.34 4571.55)" width="31.2244" height="2216.65"/>
    </g>
   </g>
   <polygon class="fil2" points="3347,5725 3564,5725 3222,5265 3113,5411 3224,5559 3284,5576 3237,5576 3347,5725 3347,5725 "/>
   <polygon class="fil2" points="3347,5725 3564,5725 3222,5265 3113,5411 3224,5559 3284,5576 3237,5576 "/>
   <polygon class="fil2" points="3347,5725 3564,5725 3222,5265 3113,5411 3224,5559 3284,5576 3237,5576 "/>
   <rect class="fil0" x="3108" y="5576" width="175.709" height="45.1496"/>
  </g>
  <path class="fil3" d="M3754 5644c2,0 3,0 3,2l28 71c2,4 -1,7 -3,8 -4,0 -5,1 -5,3 0,2 4,2 10,3 28,0 53,0 65,0 13,0 16,0 16,-3 0,-2 -1,-3 -4,-3 -4,0 -9,0 -15,-1 -7,-2 -17,-7 -30,-38 -22,-52 -77,-190 -85,-209 -4,-8 -6,-11 -9,-11 -4,0 -6,4 -10,14l-86 214c-7,17 -14,28 -30,31 -2,0 -7,0 -10,0 -3,0 -4,1 -4,3 0,3 2,3 6,3 18,0 37,-1 41,-1 11,0 25,1 36,1 4,0 6,0 6,-3 0,-2 -1,-3 -5,-3l-5 0c-11,0 -14,-4 -14,-10 0,-5 2,-13 5,-21l19 -48c1,-2 1,-2 3,-2l77 0zm-70 -18c-1,0 -2,-1 -1,-2l31 -85c1,-1 1,-3 2,-3 1,0 2,2 2,3l31 85c0,1 0,2 -2,2l-63 0z"/>
  <path class="fil3" d="M3865 5646c0,27 0,50 -1,63 -1,8 -3,14 -9,15 -3,1 -6,1 -11,1 -4,0 -5,2 -5,3 0,2 2,3 6,3 12,0 32,-1 38,-1 4,0 29,1 47,1 4,0 6,-1 6,-3 0,-1 -1,-3 -4,-3 -4,0 -10,0 -15,-1 -9,-1 -10,-7 -11,-15 -2,-13 -2,-35 -2,-63l0 -4c0,-2 1,-2 2,-2l28 0c2,0 3,1 5,3 4,4 17,24 29,40 17,22 28,36 41,43 8,4 16,5 33,5l29 0c4,0 6,0 6,-3 0,-1 -1,-3 -4,-3 -2,0 -4,0 -7,0 -5,-1 -16,-3 -33,-20 -18,-18 -39,-45 -66,-78 30,-23 42,-43 42,-64 0,-20 -13,-35 -21,-41 -17,-10 -39,-12 -58,-12 -9,0 -37,1 -47,1 -6,0 -26,-1 -42,-1 -4,0 -6,1 -6,3 0,2 2,3 5,3 4,0 9,0 12,1 9,2 12,6 13,16 0,9 0,17 0,62l0 51zm39 -116c0,-2 1,-3 3,-4 3,-1 10,-1 18,-1 17,0 46,11 46,52 0,24 -11,37 -20,43 -5,4 -9,5 -21,5 -8,0 -17,0 -23,-2 -2,-1 -3,-3 -3,-6l0 -87z"/>
  <path class="fil3" d="M4095 5646c0,27 0,50 -2,63 -1,8 -3,14 -9,15 -2,1 -6,1 -10,1 -4,0 -5,2 -5,3 0,2 2,3 6,3 12,0 32,-1 39,-1 9,0 29,1 49,1 4,0 6,-1 6,-3 0,-1 -1,-3 -5,-3 -4,0 -11,0 -15,-1 -9,-1 -11,-7 -12,-15 -1,-13 -2,-36 -2,-63l0 -118 38 1c28,0 36,9 36,16l1 4c0,4 1,5 3,5 2,0 2,-1 3,-4 0,-8 0,-30 0,-36 0,-5 0,-6 -2,-6 -1,0 -3,0 -8,1 -5,1 -11,2 -21,2l-123 0c-10,0 -21,-1 -30,-2 -8,-1 -11,-3 -13,-3 -2,0 -3,1 -4,5 0,3 -6,31 -6,36 0,3 0,5 2,5 3,0 3,-2 4,-4 1,-2 2,-6 5,-10 5,-7 12,-9 29,-9l46 -1 0 118z"/>
  <path class="fil3" d="M4395 5580c-1,0 -2,0 -2,-2l0 -7c0,-53 0,-62 1,-73 0,-12 3,-18 13,-20 4,-1 7,-1 10,-1 4,0 6,-1 6,-3 0,-2 -3,-3 -8,-3 -13,0 -35,1 -43,1 -9,0 -31,-1 -50,-1 -4,0 -7,1 -7,3 0,2 2,3 6,3 5,0 11,0 14,1 11,3 14,8 14,20 1,11 1,20 1,73l0 61c0,31 0,58 -2,73 -1,10 -3,17 -10,19 -3,1 -7,1 -12,1 -4,0 -6,1 -6,3 0,2 3,3 7,3 14,0 36,-1 44,-1 9,0 31,1 53,1 5,0 7,-1 7,-3 0,-2 -1,-3 -5,-3 -5,0 -13,0 -18,-1 -10,-2 -12,-9 -13,-19 -2,-15 -2,-42 -2,-73l0 -31c0,-2 1,-2 2,-2l132 0c1,0 2,1 2,2l0 31c0,31 0,58 -2,73 -1,10 -3,17 -10,19 -3,1 -7,1 -12,1 -4,0 -6,1 -6,3 0,2 3,3 7,3 14,0 36,-1 44,-1 9,0 31,1 53,1 4,0 7,-1 7,-3 0,-2 -1,-3 -5,-3 -5,0 -13,0 -18,-1 -10,-2 -12,-9 -13,-19 -2,-15 -2,-42 -2,-73l0 -61c0,-53 0,-62 1,-73 0,-12 3,-18 12,-20 5,-1 8,-1 10,-1 5,0 7,-1 7,-3 0,-2 -3,-3 -8,-3 -13,0 -35,1 -43,1 -9,0 -31,-1 -50,-1 -5,0 -7,1 -7,3 0,2 2,3 6,3 5,0 11,0 13,1 12,3 15,8 15,20 1,11 1,20 1,73l0 7c0,2 -1,2 -2,2l-132 0z"/>
  <path class="fil3" d="M4734 5735c78,0 127,-52 127,-120 0,-67 -47,-109 -124,-109 -92,0 -127,64 -127,114 0,53 36,115 124,115zm12 -16c-57,0 -91,-47 -91,-107 0,-73 39,-91 73,-91 49,0 88,40 88,105 0,83 -48,93 -70,93z"/>
  <path class="fil3" d="M4930 5646c0,27 0,50 -1,63 -1,8 -3,14 -9,15 -2,1 -6,1 -11,1 -4,0 -5,2 -5,3 0,2 2,3 6,3 12,0 33,-1 40,-1 9,0 29,1 49,1 3,0 6,-1 6,-3 0,-1 -2,-3 -5,-3 -5,0 -12,0 -16,-1 -9,-1 -10,-7 -11,-15 -2,-13 -2,-36 -2,-63l0 -118 38 1c27,0 35,9 36,16l0 4c1,4 1,5 4,5 1,0 2,-1 3,-4 0,-8 0,-30 0,-36 0,-5 0,-6 -2,-6 -1,0 -4,0 -9,1 -4,1 -11,2 -20,2l-123 0c-10,0 -22,-1 -30,-2 -8,-1 -11,-3 -14,-3 -1,0 -2,1 -3,5 -1,3 -7,31 -7,36 0,3 1,5 3,5 2,0 3,-2 4,-4 0,-2 2,-6 5,-10 4,-7 12,-9 29,-9l45 -1 0 118z"/>
  <path class="fil3" d="M5074 5646c0,27 0,50 -2,63 -1,8 -2,14 -8,15 -3,1 -7,1 -11,1 -4,0 -5,2 -5,3 0,2 2,3 6,3 6,0 14,0 21,0 7,0 14,-1 17,-1 9,0 20,1 35,1 15,1 33,1 56,1 12,0 14,0 16,-7 2,-6 4,-26 4,-33 0,-3 0,-7 -2,-7 -2,0 -3,2 -4,5 -2,12 -5,18 -13,21 -8,4 -21,4 -28,4 -31,0 -41,-4 -41,-24 -1,-9 0,-34 0,-44l0 -23c0,-2 0,-3 1,-3 8,0 42,1 48,1 11,1 15,6 17,12 0,3 0,7 1,10 0,2 0,3 3,3 2,0 3,-4 3,-7 0,-2 0,-14 1,-20 2,-14 2,-19 2,-21 0,-2 -1,-3 -2,-3 -1,0 -2,2 -5,4 -3,3 -7,4 -14,4 -7,1 -46,1 -53,1 -2,0 -2,-1 -2,-3l0 -73c0,-1 0,-2 2,-2 6,0 42,0 47,1 15,1 18,6 20,11 2,3 2,8 2,10 0,3 1,4 3,4 2,0 3,-3 3,-5 1,-3 1,-16 2,-19 1,-13 2,-17 2,-19 0,-1 0,-3 -2,-3 -1,0 -3,1 -5,2 -2,0 -7,1 -12,2 -6,0 -73,0 -83,0 -9,0 -28,-1 -44,-1 -4,0 -7,1 -7,3 0,2 2,3 5,3 5,0 10,0 12,1 10,2 13,6 14,16 0,9 0,17 0,62l0 51z"/>
  <path class="fil3" d="M5275 5595c0,-45 0,-53 1,-62 1,-11 3,-15 12,-16 3,-1 8,-1 11,-1 4,0 6,-1 6,-3 0,-2 -2,-3 -7,-3 -11,0 -36,1 -44,1 -8,0 -27,-1 -41,-1 -5,0 -7,1 -7,3 0,2 2,3 5,3 4,0 8,0 10,1 10,2 13,6 13,16 1,9 1,17 1,62l0 51c0,27 0,50 -2,63 -1,8 -2,14 -9,15 -2,1 -6,1 -10,1 -4,0 -5,2 -5,3 0,2 2,3 6,3 6,0 14,0 21,0 7,0 14,-1 17,-1 13,0 25,1 40,1 16,1 33,1 55,1 16,0 17,-1 19,-8 3,-8 5,-30 5,-34 0,-3 -1,-6 -3,-6 -3,0 -3,2 -4,4 0,6 -3,14 -7,18 -8,8 -19,8 -36,8 -23,0 -35,-1 -40,-6 -7,-5 -7,-24 -7,-62l0 -51z"/>
  <path class="fil3" d="M5534 5627c0,33 0,62 -2,77 -1,11 -2,16 -13,18 -7,2 -24,3 -28,3 -1,0 -3,1 -3,3 0,3 2,3 6,3 22,0 51,-1 59,-1 9,0 31,1 58,1 3,0 5,0 5,-3 0,-2 -2,-3 -3,-3 -3,0 -18,-1 -23,-2 -11,-3 -13,-8 -14,-19 -1,-15 -1,-44 -1,-77l0 -64c0,-53 2,-87 2,-90 0,-3 -1,-7 -4,-7 -3,0 -6,2 -9,5 -12,9 -78,52 -80,53 -1,1 -3,2 -3,4 0,3 2,4 3,4 1,0 3,0 5,-1 7,-3 33,-17 40,-17 5,0 5,4 5,13 0,11 0,26 0,45l0 55z"/>
 </g>
</svg>
