<?xml version="1.0" encoding="UTF-8"?>
<!DOCTYPE svg PUBLIC "-//W3C//DTD SVG 1.1//EN" "http://www.w3.org/Graphics/SVG/1.1/DTD/svg11.dtd">
<!-- Creator: CorelDRAW X8 -->
<svg xmlns="http://www.w3.org/2000/svg" xml:space="preserve" width="2.14187in" height="0.420752in" version="1.1" style="shape-rendering:geometricPrecision; text-rendering:geometricPrecision; image-rendering:optimizeQuality; fill-rule:evenodd; clip-rule:evenodd"
viewBox="0 0 1915 376"
 xmlns:xlink="http://www.w3.org/1999/xlink">
 <defs>
  <style type="text/css">
   <![CDATA[
    .str0 {stroke:#FEFEFE;stroke-width:2.68208}
    .fil0 {fill:#D2AE6D}
    .fil1 {fill:#EE220C}
    .fil2 {fill:#FEFEFE;fill-rule:nonzero}
   ]]>
  </style>
 </defs>
 <g id="Layer_x0020_1">
  <metadata id="CorelCorpID_0Corel-Layer"/>
  <g id="_611811414288">
   <path class="fil0" d="M101 185c0,0 -1,-1 -1,-1 -2,1 -2,-3 -6,-4 2,1 2,4 -1,4 -5,1 0,-7 -15,-3 7,4 2,-1 6,4 -17,0 -35,4 -52,2 0,0 0,2 0,3 2,3 3,0 -2,4l-2 1c9,-2 11,3 15,-4 2,4 -3,5 -9,7 -7,0 -9,1 -15,-2 -2,4 -1,3 -2,8l-13 2c2,5 -1,1 2,3 3,2 8,2 8,2 3,0 3,-2 2,1l-7 4c0,0 -1,1 -1,1 6,0 14,-1 22,0 5,1 2,-1 5,3 -5,2 -7,0 -12,1 2,4 0,1 7,3 0,1 0,6 -7,1l2 6c0,0 0,0 0,0l-25 3c0,4 0,1 1,3 7,3 13,0 21,1l3 6c6,-1 56,4 65,4 73,9 278,8 364,4 36,-1 75,0 111,0 8,0 9,-1 15,-3 7,-1 13,0 20,-1l-9 -2c15,-2 41,-3 53,-12 -3,1 -5,1 -8,1l6 -4c0,-10 -3,-7 -5,-15 5,-4 4,-3 9,-4l-4 -3c-7,-6 -2,-3 -2,-6 -8,-1 -10,1 -17,1 -8,0 -14,0 -22,0 -13,2 -31,-1 -43,-2 -94,-12 -147,-15 -246,-20 0,2 1,0 1,2 0,0 1,0 1,0 7,2 22,2 30,3l27 2c0,2 0,5 0,6l1 4c0,0 0,0 0,1 4,-1 8,0 13,0 7,0 11,0 13,-1 14,10 22,5 40,7 5,1 8,3 7,6 -7,3 -6,-1 -11,-3l-14 -2c-2,0 -10,-1 -13,-1 -2,3 1,3 0,5 -4,-2 -8,-2 -11,-2l-30 2c-7,0 -9,1 -14,1 -11,0 -21,-1 -31,0 -22,4 -41,-4 -56,-1 -16,4 -32,0 -48,1 -11,0 -8,-1 -14,-3 -7,-1 -22,0 -30,3l-2 -3c-2,0 -2,0 -3,0l0 -3c-9,-3 -6,-6 -18,-4 -3,4 -1,-2 0,1 0,0 1,0 0,3 -3,0 -10,1 -13,1 -5,0 -5,-1 -8,-3l8 -1 -8 -4 64 -1c11,-2 14,-8 3,-7 2,0 6,0 6,0 1,0 1,0 2,0l4 -2c-12,-5 -4,-2 -19,-2 -4,-1 -18,-2 -20,-2 9,-7 66,-1 74,-3 -8,-5 -103,-4 -120,-2l-3 0c0,0 0,0 -1,0l4 4 -12 0c0,-3 1,-3 3,-4 -18,-3 -14,0 -13,5l0 0z"/>
   <path class="fil0" d="M124 109l8 2c6,-1 11,-4 19,-4 8,-1 25,-5 31,-2 -4,2 -14,2 -19,2 -20,2 -41,8 -60,13 3,5 4,3 -11,9 -5,2 -16,8 -18,12 4,0 24,-7 38,-7 13,0 26,-3 42,-2 -8,-5 -67,11 -75,15 6,0 10,-1 18,0 6,0 10,0 18,0 7,0 9,3 16,4 18,2 37,0 54,2 11,1 23,-2 36,0 52,1 102,0 153,-2l2 -4 1 4c9,0 19,0 28,-2 3,-2 7,1 14,0 4,0 1,1 5,-3 -1,0 -4,1 -6,0 5,-5 28,-3 36,-3 0,0 0,0 1,0 0,0 0,0 0,0 1,0 3,-1 3,-1 7,-1 13,1 19,-1l35 -3c4,0 4,0 8,-1 2,-1 2,-3 6,-3 4,0 10,2 14,0l3 -1c2,-1 2,1 8,-1 0,0 -2,-1 -2,-1l16 -3c-10,-12 -5,-5 -17,-5 -1,-5 1,0 0,-3 -8,2 -43,3 -56,2l-1 5c-2,-3 -6,-4 -10,-3 -1,0 -9,-2 -13,-1 -8,2 -1,2 -3,5 -4,0 -2,-1 -2,-1 -4,-3 4,0 -5,-3 -11,-2 -22,3 -34,-1 26,-1 50,-1 76,-3 12,-1 25,-1 36,-2 6,-2 4,-2 8,-2 8,0 16,2 23,-1 6,-1 2,0 4,-3 -6,0 -14,3 -19,-1 -12,-6 9,3 -3,-1 -1,4 -2,2 -7,2l-20 -2c5,-3 30,-4 35,-4 1,3 1,1 0,3 5,-2 1,0 5,-3 2,0 4,-1 4,-1l-18 -2c3,-3 3,0 1,-3 -6,-2 -22,0 -33,1 2,-3 5,-1 9,-4l-30 1c-15,-4 -40,-1 -58,-1 -9,0 0,0 -9,3 -7,1 -5,0 -10,-2 -7,0 -13,2 -21,2 -9,-2 -13,1 -23,0 -9,0 -15,1 -24,0l-1 -8c-5,-2 3,0 -3,0l-1 -2c-5,0 -2,-1 -6,2 0,1 1,4 2,4l7 4c-7,2 -7,2 -15,1l-9 0c-6,1 4,0 -3,1 -6,0 -16,-1 -24,-1 -11,1 -67,2 -69,1l51 -5c5,-1 12,0 17,0 4,-1 1,-1 4,0 6,3 2,0 9,-3 3,6 -1,7 6,3l2 -1c1,0 1,0 1,0 8,-3 3,4 14,-2 -2,-6 -17,-2 -23,-2 -41,1 -93,4 -134,9l-51 8 0 0z"/>
   <path class="fil0" d="M341 5c0,4 3,3 3,4 -3,0 -8,0 -11,3 3,2 7,-2 11,4 -4,1 -11,3 -14,2 -6,-1 -2,-4 -9,-1 -6,1 0,0 -4,1l-5 0c-2,0 -2,0 -2,1 -6,2 -18,0 -26,2 -3,0 -6,1 -9,4 -2,-2 0,0 -1,-3l-1 -1c-4,2 -7,2 -11,4 -5,1 3,-3 -1,0 -4,2 0,-2 -4,2 24,0 45,-1 67,-2 21,0 44,-4 65,-3 -1,0 -1,0 -2,1 -6,3 -19,2 -25,3 -22,2 -57,4 -79,5 -10,0 -30,3 -36,1l-58 2c-5,1 -4,-2 -5,1 -3,0 -3,0 0,2 0,0 -2,2 0,-1l1 -1c6,4 4,1 9,1l21 0c1,0 1,0 1,0 4,0 4,1 9,1 8,-1 15,2 22,0 10,-2 14,0 23,-1l36 0c9,-1 57,-4 61,-2 -5,3 -46,0 -58,6 3,1 6,1 9,1l-10 3c9,5 32,-3 42,1 -14,3 -31,0 -45,4l-32 1c-8,0 -8,2 -14,2 -3,0 -8,0 -13,0 2,2 -3,1 5,2 0,0 4,-1 4,-1 4,0 9,1 13,1l34 -1c10,1 104,-5 122,-6 10,-2 15,-4 26,-4 -1,-4 0,0 -1,-2l-2 -2c4,-2 8,0 11,-5l5 -6c-5,-1 -11,2 -13,-1 5,0 10,1 14,-4 -1,-1 -5,-4 -5,-4 -1,-3 4,-2 -5,-3 1,-3 6,-3 -2,-6 -7,-1 -28,3 -29,-1l22 -3c4,0 5,2 6,-3 -1,-2 0,0 -1,-2 -4,-1 -9,-1 -13,-1 0,0 -4,0 -4,0l-83 4c-1,0 -1,0 -2,1l-7 0 0 0z"/>
   <path class="fil1" d="M354 358c0,1 0,1 0,1 0,2 -4,6 -8,7 -1,1 -2,2 -5,2 0,0 -2,0 -2,0 -4,0 -3,0 -4,0 10,-2 14,-6 17,-11 -4,-5 -3,-2 -6,-5 6,-7 11,-4 17,-19 2,-2 3,-5 3,-6 4,-8 -7,-27 -13,-34 -4,-5 -7,-6 -12,-9 -6,-2 -7,-2 -15,-3 -7,0 -27,6 -35,15 -4,4 -13,23 -12,28 2,9 2,25 7,31 14,21 29,26 57,16 7,-3 11,-6 11,-13l0 0z"/>
   <path class="fil2 str0" d="M947 146c-4,0 -9,0 -15,2 -1,-29 -1,-54 -3,-74 0,-7 0,-14 0,-19 -1,-25 -1,-34 -5,-34 -2,0 -5,1 -9,15 -5,10 -9,28 -15,52 -5,18 -9,37 -14,61 -6,2 -13,2 -21,3 -19,3 -42,6 -67,12 -6,2 -12,5 -18,6 -7,2 -13,5 -19,8 -3,1 -8,2 -11,4 -3,1 -6,3 -9,4 -1,2 -3,3 -4,5l-2 1c0,0 0,2 0,2 0,0 -1,0 -1,1 0,0 0,2 0,2 0,1 0,1 0,1 -2,2 0,2 0,3 0,2 0,3 1,3 2,3 3,3 6,5 2,1 3,1 5,3 1,0 3,1 4,1 3,2 8,3 11,5 6,3 12,6 19,9 12,6 24,12 35,18 17,7 32,16 46,24 -5,26 -11,53 -15,83 0,2 0,2 0,2 0,0 0,0 0,0 0,0 1,0 1,0 5,-30 11,-59 15,-84 5,3 8,5 12,6 3,3 8,6 12,8 0,1 2,1 2,1 1,1 3,1 3,3 1,0 3,1 4,3 3,0 5,1 6,3 14,9 27,19 40,30 0,0 0,0 2,0 0,0 0,0 0,-2 -2,-10 -3,-22 -3,-33 -2,-5 -2,-11 -2,-19 -1,-25 -3,-60 -4,-98 0,-8 -2,-15 -2,-23 6,0 11,0 15,0 0,0 2,-1 2,-1 0,0 -2,-2 -2,-2l0 0 0 0zm-46 -58c15,-58 21,-66 23,-66 0,0 0,0 0,0 3,0 3,14 3,33 0,6 0,12 0,19 0,20 0,45 0,74 -11,0 -20,0 -30,1 -3,0 -6,0 -9,0 4,-24 10,-43 13,-61l0 0 0 0zm-83 151c-11,-6 -23,-12 -36,-18 -6,-3 -12,-6 -18,-9 -5,-2 -8,-3 -11,-5 -1,0 -3,-1 -4,-1 -2,-2 -5,-2 -5,-3 -3,0 -3,-2 -4,-2 0,-1 0,-1 0,-3 0,-1 0,-1 1,-3 2,-1 3,-3 3,-3 3,-3 6,-4 9,-6 3,-1 6,-3 9,-4 8,-3 14,-4 20,-7 6,-2 12,-3 18,-5 25,-7 47,-12 65,-15 8,-1 14,-1 20,-3 -6,31 -14,70 -23,114 -13,-9 -28,-18 -44,-27l0 0 0 0zm80 50c0,0 0,0 -1,0 -2,-1 -3,-2 -5,-4 -1,0 -1,-1 -3,-1 0,0 -1,-2 -3,-2 -3,-3 -6,-4 -10,-7 -5,-3 -8,-6 -12,-8 9,-45 16,-84 24,-115 3,0 6,-1 7,-1 11,0 21,-2 32,-2 0,8 1,15 1,23 1,38 4,73 7,98 0,8 2,14 3,20 0,10 2,20 3,31 -14,-11 -28,-21 -43,-31l0 0 0 -1zm130 -59c0,0 0,0 0,0 -9,12 -15,16 -19,15 -3,0 -5,-3 -6,-6 -2,-3 -3,-5 -6,-5 0,0 0,0 0,0 -3,0 -6,5 -12,33 1,0 1,-1 1,-1 0,-8 2,-17 3,-27 0,-3 0,-5 0,-6 0,-2 -1,-3 -3,-3 -1,-2 -3,0 -3,1 0,3 0,5 0,6 -1,12 -1,21 -1,29 1,3 1,4 1,6 0,3 0,4 0,7 0,0 0,0 0,0 0,0 0,0 0,0 0,0 0,2 0,3 0,0 2,0 2,0 0,0 0,0 0,0 0,0 1,0 1,-1 0,0 0,-2 -1,-2 6,-39 10,-43 12,-43l0 0c1,0 3,1 4,3 2,3 3,7 6,7 6,2 14,-3 23,-15 0,0 0,-1 -2,-1l0 0 0 0zm125 -58c0,0 0,-2 -11,-3 0,0 0,0 0,0 -5,0 -9,-2 -17,-2 -13,0 -31,-1 -52,0 -8,0 -14,0 -21,2 1,-11 3,-21 4,-32 2,-9 3,-18 5,-25 3,-11 3,-15 1,-15 -1,0 -4,3 -6,13 -3,9 -4,18 -6,27 -1,11 -3,21 -4,32 -9,1 -18,3 -24,4 -7,0 -12,2 -16,3 0,0 0,0 0,0 -5,0 -9,0 -12,2 -2,0 -2,0 -2,0 0,0 2,0 2,0 0,0 0,0 0,0 3,0 7,0 12,-2 0,0 0,0 0,0 4,0 9,0 16,0 6,-1 15,-1 24,-1 -2,10 -3,20 -3,31 0,12 0,21 0,31 0,2 0,5 0,8 0,0 0,1 0,3 0,1 0,1 0,3 0,4 0,9 1,13 0,9 2,18 2,25 1,15 4,29 6,44 0,0 0,0 1,0 0,0 0,0 0,0 0,0 0,0 0,0 -1,-15 -4,-30 -6,-44 0,-7 0,-16 0,-25 0,-4 0,-9 -1,-13 0,-2 0,-2 0,-3 0,-2 0,-3 1,-5 0,-1 0,-4 0,-6 0,-10 0,-19 0,-30 2,-10 3,-22 5,-32 6,-2 13,-2 21,-2 21,-1 39,-1 52,-3 8,0 12,0 17,0 0,0 0,0 0,0 7,0 11,2 11,2 0,0 -1,1 -14,4 0,0 0,0 0,0 0,0 0,0 1,0 12,-1 13,-3 13,-4l0 0 0 0zm280 -151c0,0 0,0 -2,0 -3,0 -4,1 -7,3 -6,1 -11,6 -15,12 -11,12 -18,28 -24,46 -8,18 -12,39 -15,61 -1,21 -1,42 1,60 -10,9 -19,16 -28,24 0,-18 -1,-35 -3,-49 -1,-9 -3,-17 -4,-24 -2,-8 -5,-14 -6,-20 -3,-10 -6,-18 -9,-25 -3,-9 -6,-18 -9,-27 0,0 -2,0 -2,0 0,0 -1,0 0,1 3,8 6,17 9,27 2,6 5,15 6,24 2,8 3,14 5,21 1,8 3,15 3,24 1,16 3,34 1,52 0,2 0,2 0,3 -10,8 -21,15 -30,21 -40,30 -70,52 -65,76 3,14 15,26 26,27 0,0 2,0 2,0 9,0 16,-4 24,-12 4,-4 10,-12 16,-21 5,-4 8,-10 12,-16 2,-5 3,-8 5,-11 1,-3 3,-4 3,-6 1,-1 1,-4 3,-5 3,-8 6,-17 7,-26 3,-9 5,-19 5,-28 0,-2 0,-3 1,-3 9,-8 18,-17 28,-24 0,0 0,0 0,0 2,19 5,36 8,49 3,12 6,23 7,30 3,10 6,21 9,31 0,0 2,0 2,0 0,0 0,0 0,-1 -3,-9 -6,-21 -9,-31 -2,-8 -3,-17 -5,-29 -1,-15 -4,-31 -6,-51 0,-1 0,-3 0,-4 24,-22 47,-48 65,-79 22,-36 28,-63 18,-82 -5,-9 -15,-18 -27,-18l0 0 0 0zm-166 336c0,0 0,0 -2,0 -10,-2 -22,-14 -25,-26 -4,-24 25,-44 66,-74 9,-6 18,-14 28,-21 -3,18 -6,34 -10,48 -2,3 -2,4 -3,6 0,1 -2,4 -2,5 -1,3 -4,8 -6,11 -3,6 -6,12 -9,18 -4,9 -10,16 -15,21 -7,7 -15,12 -22,12l0 0 0 0zm173 -236c-18,30 -40,55 -63,76 0,-17 0,-34 2,-54 1,-21 6,-42 12,-60 3,-9 6,-16 9,-23 4,-9 7,-15 12,-21 3,-6 7,-11 13,-14 2,-1 5,-1 6,-3 2,0 2,0 3,0 9,0 20,9 24,18 11,18 5,45 -18,81l0 0 0 0zm6 95c-3,-1 -4,0 -7,2 -2,0 -3,1 -5,1 -1,3 -4,5 -6,9 -3,3 -4,8 -4,12 -2,5 0,9 0,12 1,5 3,8 4,9 2,2 3,3 5,3 1,3 4,5 6,5 0,0 1,0 1,0 8,0 15,-14 17,-24 1,-12 -3,-27 -11,-29l0 0zm9 27c-1,12 -9,24 -16,24 -2,0 -3,-1 -5,-3 -1,-1 -1,-3 -3,-4 0,-2 -1,-5 -1,-9 -2,-3 -2,-6 0,-11 0,-3 1,-7 3,-10 1,-3 3,-6 4,-8 0,-1 2,-3 2,-3 3,-1 4,-1 6,-1 0,0 1,0 1,0 8,1 11,15 9,25l0 0zm146 -71c0,0 0,-2 -11,-3 0,0 0,0 0,0 -5,0 -9,-2 -17,-2 -13,0 -31,-1 -52,0 -8,0 -14,0 -21,2 1,-11 3,-21 4,-32 2,-9 3,-18 5,-25 3,-11 1,-15 0,-15 0,0 -3,3 -6,13 -2,9 -3,18 -5,27 -1,11 -3,21 -4,32 -9,1 -18,3 -25,4 -6,0 -11,2 -15,3 0,0 0,0 0,0 -5,0 -9,0 -12,2 -2,0 -2,0 -2,0 0,0 0,0 2,0 0,0 0,0 0,0 3,0 7,0 12,-2 0,0 0,0 0,0 4,0 9,0 16,0 6,-1 15,-1 24,-1 -2,10 -3,20 -3,31 0,12 0,21 0,31 0,2 0,5 0,8 0,0 0,1 0,3 0,1 0,1 0,3 0,4 0,9 1,13 0,9 2,18 2,25 1,15 3,29 6,44 0,0 0,0 1,0 0,0 0,0 0,0 0,0 0,0 0,0 -1,-15 -4,-30 -6,-44 0,-7 0,-16 0,-25 -1,-4 -1,-9 -1,-13 0,-2 0,-2 0,-3 0,-2 0,-3 0,-5 0,-1 0,-4 0,-6 1,-10 1,-19 1,-30 2,-10 3,-22 5,-32 6,-2 13,-2 21,-2 21,-1 39,-1 52,-3 8,0 12,0 17,0 0,0 0,0 0,0 7,0 11,2 11,2 0,0 -1,1 -14,4 0,0 0,0 0,0 0,0 0,0 0,0 13,-1 14,-3 14,-4l0 0 0 0zm135 58c0,0 -2,0 -2,0 -31,49 -67,77 -89,68 -8,-3 -14,-9 -17,-17 0,0 0,0 0,0 -1,-5 -3,-9 -4,-14 -2,-6 -2,-12 -3,-18 0,-4 0,-7 -2,-12 0,0 0,0 0,-1 53,-39 108,-103 93,-157 -3,-9 -8,-21 -15,-28 0,0 0,-2 0,-2 -1,-1 -4,-3 -7,-4 0,-2 -2,-2 -3,-2 -2,-1 -5,-1 -6,-1 -3,1 -6,3 -9,4 -3,2 -6,5 -9,6 -3,3 -6,6 -9,9 -5,8 -9,15 -14,22 -7,17 -15,36 -19,57 -5,21 -8,42 -8,60 0,9 0,18 2,27 0,3 0,7 1,10 -31,23 -53,32 -58,27 -1,0 -4,-3 -6,-7 0,0 0,0 0,0 -1,-3 -1,-5 -1,-9 0,0 0,-2 0,-3 10,-5 21,-14 19,-21 0,-6 -4,-11 -9,-11 0,0 0,0 0,0 -1,0 -4,2 -6,5 -1,0 -1,1 -3,1 -1,2 -3,5 -4,8 -2,3 -3,7 -3,12 0,3 0,7 1,10 0,3 2,6 3,9 2,2 3,3 5,5 0,0 0,0 0,0 1,1 1,3 3,3 1,1 3,1 4,1 11,0 31,-10 55,-28 0,3 2,7 2,10 0,3 1,6 1,9 5,18 11,37 26,42 3,1 4,1 9,1 22,0 53,-25 82,-70 0,0 0,-1 0,-1l0 0 0 0zm-185 9c0,-3 1,-8 1,-9 2,-3 2,-6 3,-9 0,-2 2,-3 2,-3 1,-2 3,-3 4,-3 0,0 0,0 0,0 3,0 8,4 8,9 0,6 -8,13 -18,19 0,-1 0,-3 0,-4l0 0 0 0zm68 -5c0,-3 0,-6 0,-7 -1,-9 -1,-18 0,-27 0,-18 3,-37 8,-58 4,-20 10,-39 18,-56 4,-9 9,-16 13,-22 2,-3 5,-6 8,-9 1,-3 4,-4 7,-6 3,-3 6,-4 9,-4 2,0 2,0 3,0 2,0 2,0 2,0 12,4 20,23 23,34 15,54 -38,116 -91,155l0 0 0 0zm292 -51c-2,-13 -5,-16 -8,-16 -4,-1 -7,3 -13,12 0,1 0,1 0,1 1,0 1,0 1,0 6,-10 9,-13 12,-11 2,0 5,3 6,13 0,1 0,3 0,3 2,10 2,24 2,37 0,15 0,29 0,38 0,1 0,3 0,3 0,6 -2,12 -2,18 0,0 0,1 2,1 0,0 0,0 0,0 0,0 0,0 0,-1 0,-6 1,-12 1,-18 0,0 0,-2 0,-3 2,-9 2,-23 2,-38 0,-13 0,-27 -3,-37 0,0 0,-2 0,-2l0 0 0 0z"/>
  </g>
 </g>
</svg>
